<svg width="48" height="49" viewBox="0 0 48 49" fill="none" xmlns="http://www.w3.org/2000/svg">
<rect width="48" height="48.5236" rx="24" fill="#EEEEF2"/>
<g clip-path="url(#clip0_57_8048)">
<path d="M38.3863 24.5361C38.3863 23.3347 38.2883 22.458 38.0762 21.5489H24.2869V26.9713H32.3809C32.2178 28.3188 31.3366 30.3482 29.3783 31.7119L29.3508 31.8934L33.7108 35.2537L34.0128 35.2836C36.787 32.7347 38.3863 28.9844 38.3863 24.5361Z" fill="#4285F4"/>
<path d="M24.2868 38.8228C28.2522 38.8228 31.5812 37.524 34.0128 35.2836L29.3782 31.7119C28.138 32.5723 26.4735 33.173 24.2868 33.173C20.403 33.173 17.1066 30.6242 15.9316 27.1012L15.7593 27.1158L11.2258 30.6063L11.1665 30.7703C13.5817 35.5433 18.5426 38.8228 24.2868 38.8228Z" fill="#34A853"/>
<path d="M15.9316 27.1012C15.6215 26.1921 15.4421 25.2179 15.4421 24.2114C15.4421 23.2048 15.6215 22.2307 15.9153 21.3216L15.9071 21.128L11.3167 17.5814L11.1665 17.6524C10.1711 19.6331 9.59998 21.8573 9.59998 24.2114C9.59998 26.5655 10.1711 28.7896 11.1665 30.7703L15.9316 27.1012Z" fill="#FBBC05"/>
<path d="M24.2868 15.2497C27.0446 15.2497 28.9049 16.4348 29.9657 17.4252L34.1107 13.3989C31.565 11.0449 28.2522 9.59996 24.2868 9.59996C18.5426 9.59996 13.5817 12.8794 11.1665 17.6524L15.9152 21.3216C17.1066 17.7986 20.403 15.2497 24.2868 15.2497Z" fill="#EB4335"/>
</g>
<defs>
<clipPath id="clip0_57_8048">
<rect width="28.8" height="29.3236" fill="white" transform="translate(9.59998 9.59996)"/>
</clipPath>
</defs>
</svg>
