<svg width="17" height="16" viewBox="0 0 17 16" fill="none" xmlns="http://www.w3.org/2000/svg">
<path d="M15.1667 2.16665V13.8333M1.83333 2.16665L1.83333 13.8333M10.5 1.33331L6.5 1.33331C6.03328 1.33331 5.79993 1.33331 5.62167 1.42414C5.46487 1.50404 5.33738 1.63152 5.25749 1.78832C5.16666 1.96658 5.16666 2.19994 5.16666 2.66665L5.16666 13.3333C5.16666 13.8 5.16666 14.0334 5.25749 14.2116C5.33738 14.3684 5.46487 14.4959 5.62167 14.5758C5.79993 14.6666 6.03328 14.6666 6.49999 14.6666H10.5C10.9667 14.6666 11.2001 14.6666 11.3783 14.5758C11.5351 14.4959 11.6626 14.3684 11.7425 14.2116C11.8333 14.0334 11.8333 13.8 11.8333 13.3333L11.8333 2.66665C11.8333 2.19994 11.8333 1.96658 11.7425 1.78832C11.6626 1.63152 11.5351 1.50404 11.3783 1.42414C11.2001 1.33331 10.9667 1.33331 10.5 1.33331Z" stroke="#EEEEF2" stroke-width="2" stroke-linecap="round"/>
</svg>
