<svg width="21" height="20" viewBox="0 0 21 20" fill="none" xmlns="http://www.w3.org/2000/svg">
<g clip-path="url(#clip0_194_70)">
<path d="M19.7131 7.50208C19.7162 7.55711 19.7121 7.61311 19.6983 7.66874L18.4646 12.6033C18.4024 12.8519 18.1796 13.0267 17.9235 13.0281L10.5216 13.0654C10.5206 13.0654 10.5197 13.0654 10.5188 13.0654H3.11682C2.85933 13.0654 2.63495 12.89 2.57275 12.6402L1.3391 7.68691C1.3249 7.62979 1.32079 7.57222 1.32437 7.51577C0.84714 7.36541 0.5 6.91883 0.5 6.39255C0.5 5.74321 1.02822 5.21498 1.67757 5.21498C2.32692 5.21498 2.85514 5.74321 2.85514 6.39255C2.85514 6.75823 2.68759 7.08541 2.42523 7.30156L3.96976 8.85775C4.36011 9.25109 4.90179 9.47659 5.45596 9.47659C6.11122 9.47659 6.73596 9.16541 7.12938 8.64407L9.6677 5.28078C9.45447 5.06769 9.32243 4.77326 9.32243 4.44863C9.32243 3.79928 9.85065 3.27106 10.5 3.27106C11.1493 3.27106 11.6776 3.79928 11.6776 4.44863C11.6776 4.76354 11.5526 5.04937 11.3505 5.26089C11.3511 5.26179 11.352 5.26253 11.3526 5.26351L13.8726 8.63607C14.2658 9.16242 14.8928 9.47666 15.5499 9.47666C16.1092 9.47666 16.6351 9.25887 17.0305 8.86336L18.5848 7.30911C18.3169 7.09304 18.1449 6.76272 18.1449 6.39255C18.1449 5.74321 18.6731 5.21498 19.3224 5.21498C19.9718 5.21498 20.5 5.74321 20.5 6.39255C20.5 6.90478 20.1707 7.34044 19.7131 7.50208ZM18.3443 14.8225C18.3443 14.5128 18.0932 14.2617 17.7835 14.2617H3.27884C2.96916 14.2617 2.71809 14.5128 2.71809 14.8225V16.1683C2.71809 16.4779 2.96916 16.729 3.27884 16.729H17.7835C18.0932 16.729 18.3443 16.4779 18.3443 16.1683V14.8225Z" fill="url(#paint0_linear_194_70)"/>
</g>
<defs>
<linearGradient id="paint0_linear_194_70" x1="9.85629e-08" y1="3.00006" x2="20" y2="17.0001" gradientUnits="userSpaceOnUse">
<stop stop-color="#FF9A7B"/>
<stop offset="1" stop-color="#EA3800"/>
</linearGradient>
<clipPath id="clip0_194_70">
<rect width="20" height="20" fill="white" transform="translate(0.5)"/>
</clipPath>
</defs>
</svg>
