<svg width="24" height="24" viewBox="0 0 24 24" fill="none" xmlns="http://www.w3.org/2000/svg">
<g clip-path="url(#clip0_59_9111)">
<path d="M3.73005 22.455L4.18404 21.564L3.73005 22.455ZM1.54497 20.27L2.43597 19.816L1.54497 20.27ZM18.455 20.27L17.564 19.816L18.455 20.27ZM16.27 22.455L15.816 21.564L16.27 22.455ZM16.27 5.54497L15.816 6.43597L16.27 5.54497ZM18.455 7.73005L17.564 8.18404L18.455 7.73005ZM3.73005 5.54497L4.18404 6.43597L3.73005 5.54497ZM1.54497 7.73005L2.43597 8.18404L1.54497 7.73005ZM19 18C18.4477 18 18 18.4477 18 19C18 19.5523 18.4477 20 19 20V18ZM4 5C4 5.55228 4.44772 6 5 6C5.55228 6 6 5.55228 6 5H4ZM5.3085 16.2776C4.90954 16.6595 4.89572 17.2925 5.27762 17.6915C5.65953 18.0905 6.29254 18.1043 6.6915 17.7224L5.3085 16.2776ZM13.3085 17.7224C13.7075 18.1043 14.3405 18.0905 14.7224 17.6915C15.1043 17.2925 15.0905 16.6595 14.6915 16.2776L13.3085 17.7224ZM9 6H11V4H9V6ZM18 13V15H20V13H18ZM11 22H9V24H11V22ZM2 15V13H0V15H2ZM9 22C7.58337 22 6.58104 21.9992 5.79744 21.9352C5.02552 21.8721 4.55435 21.7527 4.18404 21.564L3.27606 23.346C3.9753 23.7023 4.73898 23.8554 5.63458 23.9286C6.51851 24.0008 7.61637 24 9 24V22ZM0 15C0 16.3836 -0.000777721 17.4815 0.071442 18.3654C0.144616 19.261 0.297677 20.0247 0.653961 20.7239L2.43597 19.816C2.24729 19.4457 2.12787 18.9745 2.0648 18.2026C2.00078 17.419 2 16.4166 2 15H0ZM4.18404 21.564C3.43139 21.1805 2.81947 20.5686 2.43597 19.816L0.653961 20.7239C1.2292 21.8529 2.14708 22.7708 3.27606 23.346L4.18404 21.564ZM18 15C18 16.4166 17.9992 17.419 17.9352 18.2026C17.8721 18.9745 17.7527 19.4457 17.564 19.816L19.346 20.7239C19.7023 20.0247 19.8554 19.261 19.9286 18.3654C20.0008 17.4815 20 16.3836 20 15H18ZM11 24C12.3836 24 13.4815 24.0008 14.3654 23.9286C15.261 23.8554 16.0247 23.7023 16.7239 23.346L15.816 21.564C15.4457 21.7527 14.9745 21.8721 14.2026 21.9352C13.419 21.9992 12.4166 22 11 22V24ZM17.564 19.816C17.1805 20.5686 16.5686 21.1805 15.816 21.564L16.7239 23.346C17.8529 22.7708 18.7708 21.8529 19.346 20.7239L17.564 19.816ZM11 6C12.4166 6 13.419 6.00078 14.2026 6.0648C14.9745 6.12787 15.4457 6.24729 15.816 6.43597L16.7239 4.65396C16.0247 4.29768 15.261 4.14462 14.3654 4.07144C13.4815 3.99922 12.3836 4 11 4V6ZM20 13C20 11.6164 20.0008 10.5185 19.9286 9.63458C19.8554 8.73898 19.7023 7.9753 19.346 7.27606L17.564 8.18404C17.7527 8.55435 17.8721 9.02552 17.9352 9.79744C17.9992 10.581 18 11.5834 18 13H20ZM15.816 6.43597C16.5686 6.81947 17.1805 7.43139 17.564 8.18404L19.346 7.27606C18.7708 6.14708 17.8529 5.2292 16.7239 4.65396L15.816 6.43597ZM9 4C7.61637 4 6.51851 3.99922 5.63458 4.07144C4.73898 4.14462 3.9753 4.29768 3.27606 4.65396L4.18404 6.43597C4.55435 6.24729 5.02552 6.12787 5.79744 6.0648C6.58104 6.00078 7.58337 6 9 6V4ZM2 13C2 11.5834 2.00078 10.581 2.0648 9.79744C2.12787 9.02552 2.24729 8.55435 2.43597 8.18404L0.653961 7.27606C0.297677 7.9753 0.144616 8.73898 0.071442 9.63458C-0.000777721 10.5185 0 11.6164 0 13H2ZM3.27606 4.65396C2.14708 5.2292 1.2292 6.14708 0.653961 7.27606L2.43597 8.18404C2.81947 7.43139 3.43139 6.81947 4.18404 6.43597L3.27606 4.65396ZM9 2H18V0H9V2ZM22 6V15H24V6H22ZM22 15C22 16.6569 20.6569 18 19 18V20C21.7614 20 24 17.7614 24 15H22ZM18 2C20.2091 2 22 3.79086 22 6H24C24 2.68629 21.3137 0 18 0V2ZM9 0C6.23858 0 4 2.23858 4 5H6C6 3.34315 7.34315 2 9 2V0ZM6.6915 17.7224C8.51395 15.9778 11.4861 15.9778 13.3085 17.7224L14.6915 16.2776C12.0957 13.7928 7.90433 13.7928 5.3085 16.2776L6.6915 17.7224ZM11.683 12.5369C11.683 13.345 10.9858 14.0738 10.0328 14.0738V16.0738C12.0071 16.0738 13.683 14.531 13.683 12.5369H11.683ZM10.0328 14.0738C9.07983 14.0738 8.38264 13.345 8.38264 12.5369H6.38264C6.38264 14.531 8.0585 16.0738 10.0328 16.0738V14.0738ZM8.38264 12.5369C8.38264 11.7288 9.07983 11 10.0328 11V9C8.0585 9 6.38264 10.5428 6.38264 12.5369H8.38264ZM10.0328 11C10.9858 11 11.683 11.7288 11.683 12.5369H13.683C13.683 10.5428 12.0071 9 10.0328 9V11Z" fill="#EEEEF2"/>
</g>
<defs>
<clipPath id="clip0_59_9111">
<rect width="24" height="24" fill="white"/>
</clipPath>
</defs>
</svg>
