<svg width="28" height="28" viewBox="0 0 28 28" fill="none" xmlns="http://www.w3.org/2000/svg">
<path d="M27.5 3.1295C27.5 1.0175 25.133 -0.230502 23.39 0.963498L7.643 11.7545C7.29254 11.9947 7.00564 12.3164 6.80692 12.692C6.6082 13.0675 6.50361 13.4857 6.50214 13.9106C6.50067 14.3354 6.60235 14.7543 6.79845 15.1312C6.99455 15.5082 7.27922 15.8319 7.628 16.0745L23.3765 27.0275C25.115 28.238 27.5 26.99 27.5 24.872V3.1295ZM0.5 1.625C0.5 1.32663 0.618526 1.04048 0.829504 0.829502C1.04048 0.618524 1.32663 0.499998 1.625 0.499998C1.92337 0.499998 2.20952 0.618524 2.4205 0.829502C2.63147 1.04048 2.75 1.32663 2.75 1.625V26.375C2.75 26.6734 2.63147 26.9595 2.4205 27.1705C2.20952 27.3815 1.92337 27.5 1.625 27.5C1.32663 27.5 1.04048 27.3815 0.829504 27.1705C0.618526 26.9595 0.5 26.6734 0.5 26.375V1.625Z" fill="#F2EFEE"/>
</svg>
