<svg width="48" height="48" viewBox="0 0 48 48" fill="none" xmlns="http://www.w3.org/2000/svg">
<g clip-path="url(#clip0_21_2132)">
<path d="M9 0H39C43.971 0 48 4.029 48 9V39C48 43.971 43.971 48 39 48H9C4.029 48 0 43.971 0 39V9C0 4.029 4.029 0 9 0Z" fill="#F5E6FE"/>
<path d="M31.7625 22.8195L28.473 19.9995H27.75C26.7855 19.9995 25.9995 19.215 25.9995 18.249V16.749C25.9995 15.7845 26.784 14.9985 27.75 14.9985H28.473L31.7625 12.1785C32.244 11.766 33 12.1095 33 12.75V22.2495C33 22.8945 32.2425 23.232 31.7625 22.8195Z" fill="#D9A4FC"/>
<path d="M34.2225 19.5345C33.9285 19.2435 33.924 18.768 34.215 18.4725C34.3575 18.33 34.5 17.973 34.5 17.5005C34.5 17.028 34.3575 16.671 34.2165 16.5285C33.9255 16.233 33.93 15.7575 34.224 15.4665C34.5195 15.177 34.992 15.18 35.286 15.474C35.7405 15.936 36.0015 16.674 36.0015 17.502C36 19.398 34.866 20.1645 34.2225 19.5345Z" fill="#D9A4FC"/>
<path d="M24 18.2505V32.001C24 32.55 23.55 33 22.9995 33C22.449 33 21.999 32.55 21.999 31.9995V16.0005C21.999 15.45 22.449 15 22.9995 15C23.55 15 24 15.45 24 16.0005V16.7505C24 15.33 24.7995 14.0805 25.9695 13.4505C25.83 12.63 25.11 12 24.2505 12H21.75C20.79 12 19.9995 12.7905 19.9995 13.7505V34.251C19.9995 35.211 20.79 36.0015 21.75 36.0015H24.2505C25.2105 36.0015 26.001 35.211 26.001 34.251V21.561C24.81 20.94 24 19.6905 24 18.2505Z" fill="#BE63F9"/>
<path d="M12 33V34.2495C12 35.2095 12.7905 36 13.7505 36H16.251C17.2095 36 18 35.2095 18 34.2495V33H12Z" fill="#BE63F9"/>
<path d="M18 31.0005V19.7505C18 18.7905 17.2095 18 16.2495 18H13.7505C12.7905 18 12 18.7905 12 19.7505V31.0005H18Z" fill="#BE63F9"/>
<path d="M28.0005 33V34.2495C28.0005 35.2095 28.791 36 29.751 36H32.25C33.21 36 34.0005 35.2095 34.0005 34.2495V33H28.0005Z" fill="#BE63F9"/>
<path d="M34.0005 24.3705V31.0005H28.0005V22.23L30.4605 24.3405C30.96 24.7605 31.59 25.0005 32.25 25.0005C32.9115 25.0005 33.5145 24.774 34.0005 24.3705Z" fill="#BE63F9"/>
</g>
<defs>
<clipPath id="clip0_21_2132">
<rect width="48" height="48" fill="white"/>
</clipPath>
</defs>
</svg>
