<svg width="19" height="20" viewBox="0 0 19 20" fill="none" xmlns="http://www.w3.org/2000/svg">
<path d="M11 4.34141C12.7048 4.94398 14.056 6.29517 14.6586 8M11.9655 1.5C14.5505 2.40178 16.5982 4.44948 17.5 7.03451M8.58101 11.419C7.48312 10.3211 6.6162 9.07969 5.98026 7.75516C5.92556 7.64123 5.89821 7.58426 5.8772 7.51218C5.80252 7.25601 5.85616 6.94146 6.0115 6.72452C6.05521 6.66347 6.10744 6.61125 6.21189 6.5068C6.53133 6.18736 6.69105 6.02764 6.79547 5.86703C7.18927 5.26134 7.18927 4.4805 6.79547 3.87481C6.69104 3.7142 6.53133 3.55448 6.21189 3.23504L6.03383 3.05699C5.54825 2.5714 5.30546 2.32861 5.0447 2.19672C4.52611 1.93443 3.91369 1.93443 3.3951 2.19672C3.13434 2.32861 2.89155 2.57141 2.40597 3.05699L2.26193 3.20102C1.77801 3.68494 1.53605 3.92691 1.35126 4.25587C1.1462 4.6209 0.998762 5.18785 1.00001 5.60653C1.00113 5.98385 1.07432 6.24172 1.22071 6.75746C2.00738 9.52911 3.49168 12.1445 5.6736 14.3264C7.85553 16.5083 10.4709 17.9926 13.2425 18.7793C13.7583 18.9257 14.0162 18.9989 14.3935 19C14.8121 19.0012 15.3791 18.8538 15.7441 18.6487C16.0731 18.4639 16.3151 18.222 16.799 17.7381L16.943 17.594C17.4286 17.1084 17.6714 16.8657 17.8033 16.6049C18.0656 16.0863 18.0656 15.4739 17.8033 14.9553C17.6714 14.6945 17.4286 14.4518 16.943 13.9662L16.765 13.7881C16.4455 13.4687 16.2858 13.309 16.1252 13.2045C15.5195 12.8107 14.7387 12.8107 14.133 13.2045C13.9724 13.309 13.8126 13.4687 13.4932 13.7881C13.3888 13.8926 13.3365 13.9448 13.2755 13.9885C13.0585 14.1438 12.744 14.1975 12.4878 14.1228C12.4157 14.1018 12.3588 14.0744 12.2448 14.0197C10.9203 13.3838 9.67891 12.5169 8.58101 11.419Z" stroke="#EEEEF2" stroke-width="2" stroke-linecap="round"/>
</svg>
