<svg width="36" height="36" viewBox="0 0 36 36" fill="none" xmlns="http://www.w3.org/2000/svg">
<path d="M4.5 7.1295C4.5 5.0175 6.867 3.7695 8.61 4.9635L24.357 15.7545C24.7075 15.9947 24.9944 16.3164 25.1931 16.692C25.3918 17.0675 25.4964 17.4857 25.4979 17.9106C25.4993 18.3354 25.3977 18.7543 25.2015 19.1312C25.0054 19.5082 24.7208 19.8319 24.372 20.0745L8.6235 31.0275C6.885 32.238 4.5 30.99 4.5 28.872V7.1295ZM31.5 5.625C31.5 5.32663 31.3815 5.04048 31.1705 4.8295C30.9595 4.61852 30.6734 4.5 30.375 4.5C30.0766 4.5 29.7905 4.61852 29.5795 4.8295C29.3685 5.04048 29.25 5.32663 29.25 5.625V30.375C29.25 30.6734 29.3685 30.9595 29.5795 31.1705C29.7905 31.3815 30.0766 31.5 30.375 31.5C30.6734 31.5 30.9595 31.3815 31.1705 31.1705C31.3815 30.9595 31.5 30.6734 31.5 30.375V5.625Z" fill="#F2EFEE"/>
</svg>
