<svg width="33" height="33" viewBox="0 0 33 33" fill="none" xmlns="http://www.w3.org/2000/svg">
<circle cx="16.5" cy="16.5" r="16.5" fill="#007AEA" fill-opacity="0.15"/>
<path d="M20.25 12C20.25 12.4142 20.5858 12.75 21 12.75C21.4142 12.75 21.75 12.4142 21.75 12H20.25ZM21.75 22C21.75 21.5858 21.4142 21.25 21 21.25C20.5858 21.25 20.25 21.5858 20.25 22H21.75ZM17.8 25.25C17.3858 25.25 17.05 25.5858 17.05 26C17.05 26.4142 17.3858 26.75 17.8 26.75V25.25ZM19.908 25.7699L20.2632 26.4304H20.2632L19.908 25.7699ZM20.782 24.8473L20.1066 24.5213L20.1066 24.5213L20.782 24.8473ZM10.092 7.2301L10.4473 7.89062L10.4473 7.89062L10.092 7.2301ZM8.25 10.3778C8.25 10.792 8.58579 11.1278 9 11.1278C9.41421 11.1278 9.75 10.792 9.75 10.3778H8.25ZM9.21799 8.15269L9.89341 8.47872H9.89341L9.21799 8.15269ZM20.782 8.15269L20.1066 8.47872L20.782 8.15269ZM19.908 7.2301L20.2632 6.56957V6.56957L19.908 7.2301ZM11.7313 8.07301L11.4571 8.77108L11.7313 8.07301ZM15.7313 9.64444L16.0055 8.94638L15.7313 9.64444ZM14.2687 27.927L14.5429 27.2289H14.5429L14.2687 27.927ZM10.2687 26.3556L9.99445 27.0536H9.99446L10.2687 26.3556ZM26 17.75C26.4142 17.75 26.75 17.4142 26.75 17C26.75 16.5858 26.4142 16.25 26 16.25V17.75ZM17 16.25C16.5858 16.25 16.25 16.5858 16.25 17C16.25 17.4142 16.5858 17.75 17 17.75V16.25ZM23.4697 19.4697C23.1768 19.7626 23.1768 20.2374 23.4697 20.5303C23.7626 20.8232 24.2374 20.8232 24.5303 20.5303L23.4697 19.4697ZM25.8686 18.1314L26.399 18.6617L25.8686 18.1314ZM25.8686 15.8686L26.399 15.3383L26.399 15.3383L25.8686 15.8686ZM24.5303 13.4697C24.2374 13.1768 23.7626 13.1768 23.4697 13.4697C23.1768 13.7626 23.1768 14.2374 23.4697 14.5303L24.5303 13.4697ZM26.5368 17.309L25.8235 17.0773L26.5368 17.309ZM26.5368 16.691L25.8235 16.9227L26.5368 16.691ZM21.75 12V10.3778H20.25V12H21.75ZM17.8 6.25H12.2V7.75H17.8V6.25ZM21.75 22.6222V22H20.25V22.6222H21.75ZM17.8 26.75C18.347 26.75 18.8048 26.7506 19.178 26.7185C19.5613 26.6854 19.9225 26.6137 20.2632 26.4304L19.5527 25.1094C19.4657 25.1562 19.3329 25.1995 19.0492 25.224C18.7553 25.2494 18.3731 25.25 17.8 25.25V26.75ZM20.25 22.6222C20.25 23.2251 20.2495 23.6346 20.225 23.9509C20.2011 24.2596 20.1578 24.4152 20.1066 24.5213L21.4574 25.1733C21.6242 24.8279 21.6899 24.462 21.7205 24.0667C21.7505 23.679 21.75 23.2017 21.75 22.6222H20.25ZM20.2632 26.4304C20.7836 26.1505 21.1993 25.7081 21.4574 25.1733L20.1066 24.5213C19.9812 24.781 19.785 24.9845 19.5527 25.1094L20.2632 26.4304ZM12.2 6.25C11.653 6.25 11.1952 6.24935 10.822 6.28154C10.4387 6.31459 10.0775 6.38631 9.73677 6.56957L10.4473 7.89062C10.5343 7.84379 10.6671 7.80046 10.9508 7.77599C11.2447 7.75065 11.6269 7.75 12.2 7.75V6.25ZM9.75 10.3778C9.75 9.77488 9.75052 9.36545 9.77501 9.04908C9.79891 8.74035 9.84219 8.58483 9.89341 8.47872L8.54256 7.82665C8.37579 8.17214 8.31008 8.53799 8.27949 8.93332C8.24948 9.32102 8.25 9.79834 8.25 10.3778H9.75ZM9.73677 6.56957C9.21638 6.84945 8.80071 7.29186 8.54256 7.82665L9.89341 8.47872C10.0188 8.21905 10.215 8.01554 10.4473 7.89062L9.73677 6.56957ZM21.75 10.3778C21.75 9.79834 21.7505 9.32102 21.7205 8.93332C21.6899 8.53799 21.6242 8.17214 21.4574 7.82665L20.1066 8.47872C20.1578 8.58483 20.2011 8.74035 20.225 9.04908C20.2495 9.36545 20.25 9.77488 20.25 10.3778H21.75ZM17.8 7.75C18.3731 7.75 18.7553 7.75065 19.0492 7.77599C19.3329 7.80046 19.4657 7.84379 19.5527 7.89062L20.2632 6.56957C19.9225 6.38631 19.5613 6.31459 19.178 6.28154C18.8048 6.24935 18.347 6.25 17.8 6.25V7.75ZM21.4574 7.82665C21.1993 7.29186 20.7836 6.84945 20.2632 6.56957L19.5527 7.89062C19.785 8.01554 19.9812 8.21905 20.1066 8.47872L21.4574 7.82665ZM11.4571 8.77108L15.4571 10.3425L16.0055 8.94638L12.0055 7.37495L11.4571 8.77108ZM16.25 11.5059V26.0655H17.75V11.5059H16.25ZM14.5429 27.2289L10.5429 25.6575L9.99446 27.0536L13.9945 28.6251L14.5429 27.2289ZM9.75 24.4941V9.93452H8.25V24.4941H9.75ZM10.5429 25.6575C10.0646 25.4696 9.75 25.008 9.75 24.4941H8.25C8.25 25.6247 8.94207 26.6402 9.99445 27.0536L10.5429 25.6575ZM16.25 26.0655C16.25 26.9465 15.363 27.5511 14.5429 27.2289L13.9945 28.6251C15.7985 29.3338 17.75 28.0038 17.75 26.0655H16.25ZM15.4571 10.3425C15.9354 10.5304 16.25 10.992 16.25 11.5059H17.75C17.75 10.3753 17.0579 9.35981 16.0055 8.94638L15.4571 10.3425ZM12.0055 7.37495C10.2015 6.66621 8.25 7.99624 8.25 9.93452H9.75C9.75 9.05348 10.637 8.44892 11.4571 8.77108L12.0055 7.37495ZM26 16.25H17V17.75H26V16.25ZM24.5303 20.5303L26.399 18.6617L25.3383 17.601L23.4697 19.4697L24.5303 20.5303ZM26.399 15.3383L24.5303 13.4697L23.4697 14.5303L25.3383 16.399L26.399 15.3383ZM26.399 18.6617C26.5882 18.4724 26.7625 18.299 26.8952 18.1427C27.0336 17.9797 27.1703 17.7866 27.2501 17.5408L25.8235 17.0773C25.8292 17.0598 25.8298 17.0799 25.7517 17.1719C25.6678 17.2707 25.5451 17.3943 25.3383 17.601L26.399 18.6617ZM25.3383 16.399C25.5451 16.6057 25.6678 16.7293 25.7517 16.8281C25.8298 16.9201 25.8292 16.9403 25.8235 16.9227L27.2501 16.4592C27.1703 16.2134 27.0336 16.0203 26.8952 15.8573C26.7625 15.701 26.5882 15.5276 26.399 15.3383L25.3383 16.399ZM27.2501 17.5408C27.3643 17.1893 27.3643 16.8107 27.2501 16.4592L25.8235 16.9227C25.8399 16.973 25.8399 17.027 25.8235 17.0773L27.2501 17.5408Z" fill="#007AEA"/>
</svg>
