<svg width="24" height="24" viewBox="0 0 24 24" fill="none" xmlns="http://www.w3.org/2000/svg">
<path d="M7.00009 7C7.00009 7.55228 7.44781 8 8.00009 8C8.55238 8 9.00009 7.55228 9.00009 7H7.00009ZM9.00009 17C9.00009 16.4477 8.55238 16 8.00009 16C7.44781 16 7.00009 16.4477 7.00009 17H9.00009ZM9.09211 21.782L9.5461 20.891L9.5461 20.891L9.09211 21.782ZM8.21808 20.908L7.32707 21.362H7.32707L8.21808 20.908ZM19.7821 20.908L20.6731 21.362L19.7821 20.908ZM18.9081 21.782L18.4541 20.891L18.4541 20.891L18.9081 21.782ZM18.9081 2.21799L18.4541 3.10899V3.10899L18.9081 2.21799ZM19.7821 3.09202L18.8911 3.54601V3.54601L19.7821 3.09202ZM8.21808 3.09202L7.32707 2.63803V2.63803L8.21808 3.09202ZM9.09211 2.21799L8.63812 1.32698V1.32698L9.09211 2.21799ZM3.00009 11C2.44781 11 2.00009 11.4477 2.00009 12C2.00009 12.5523 2.44781 13 3.00009 13L3.00009 11ZM14.0001 13C14.5524 13 15.0001 12.5523 15.0001 12C15.0001 11.4477 14.5524 11 14.0001 11V13ZM5.7072 9.70711C6.09772 9.31658 6.09772 8.68342 5.7072 8.29289C5.31667 7.90237 4.68351 7.90237 4.29298 8.29289L5.7072 9.70711ZM3.13146 10.8686L2.42436 10.1615H2.42436L3.13146 10.8686ZM3.13146 13.1314L2.42435 13.8385L2.42436 13.8385L3.13146 13.1314ZM4.29299 15.7071C4.68351 16.0976 5.31668 16.0976 5.7072 15.7071C6.09772 15.3166 6.09772 14.6834 5.7072 14.2929L4.29299 15.7071ZM2.46325 11.691L3.41431 12L2.46325 11.691ZM2.46325 12.309L3.41431 12L2.46325 12.309ZM9.00009 7V5.2H7.00009V7H9.00009ZM11.2001 3H16.8001V1H11.2001V3ZM19.0001 5.2V18.8H21.0001V5.2H19.0001ZM16.8001 21H11.2001V23H16.8001V21ZM9.00009 18.8V17H7.00009V18.8H9.00009ZM11.2001 21C10.6235 21 10.2513 20.9992 9.96793 20.9761C9.69626 20.9539 9.59555 20.9162 9.5461 20.891L8.63812 22.673C9.0165 22.8658 9.40972 22.9371 9.80506 22.9694C10.1887 23.0008 10.6565 23 11.2001 23V21ZM7.00009 18.8C7.00009 19.3436 6.99931 19.8114 7.03066 20.195C7.06296 20.5904 7.13428 20.9836 7.32707 21.362L9.10909 20.454C9.08389 20.4045 9.04621 20.3038 9.02402 20.0322C9.00087 19.7488 9.00009 19.3766 9.00009 18.8H7.00009ZM9.5461 20.891C9.35794 20.7951 9.20496 20.6422 9.10909 20.454L7.32707 21.362C7.61469 21.9265 8.07363 22.3854 8.63812 22.673L9.5461 20.891ZM19.0001 18.8C19.0001 19.3766 18.9993 19.7488 18.9762 20.0322C18.954 20.3038 18.9163 20.4045 18.8911 20.454L20.6731 21.362C20.8659 20.9836 20.9372 20.5904 20.9695 20.195C21.0009 19.8114 21.0001 19.3436 21.0001 18.8H19.0001ZM16.8001 23C17.3436 23 17.8114 23.0008 18.1951 22.9694C18.5905 22.9371 18.9837 22.8658 19.3621 22.673L18.4541 20.891C18.4046 20.9162 18.3039 20.9539 18.0323 20.9761C17.7489 20.9992 17.3766 21 16.8001 21V23ZM18.8911 20.454C18.7952 20.6422 18.6422 20.7951 18.4541 20.891L19.3621 22.673C19.9265 22.3854 20.3855 21.9265 20.6731 21.362L18.8911 20.454ZM16.8001 3C17.3766 3 17.7489 3.00078 18.0323 3.02393C18.3039 3.04612 18.4046 3.0838 18.4541 3.10899L19.3621 1.32698C18.9837 1.13419 18.5905 1.06287 18.1951 1.03057C17.8114 0.999222 17.3436 1 16.8001 1V3ZM21.0001 5.2C21.0001 4.65645 21.0009 4.18864 20.9695 3.80497C20.9372 3.40963 20.8659 3.01641 20.6731 2.63803L18.8911 3.54601C18.9163 3.59545 18.954 3.69617 18.9762 3.96784C18.9993 4.25117 19.0001 4.62345 19.0001 5.2H21.0001ZM18.4541 3.10899C18.6422 3.20487 18.7952 3.35785 18.8911 3.54601L20.6731 2.63803C20.3855 2.07354 19.9265 1.6146 19.3621 1.32698L18.4541 3.10899ZM9.00009 5.2C9.00009 4.62345 9.00087 4.25117 9.02402 3.96784C9.04621 3.69617 9.08389 3.59545 9.10909 3.54601L7.32707 2.63803C7.13428 3.01641 7.06296 3.40963 7.03066 3.80497C6.99931 4.18864 7.00009 4.65645 7.00009 5.2H9.00009ZM11.2001 1C10.6565 1 10.1887 0.999222 9.80506 1.03057C9.40972 1.06287 9.0165 1.13419 8.63812 1.32698L9.5461 3.10899C9.59555 3.0838 9.69626 3.04612 9.96793 3.02393C10.2513 3.00078 10.6235 3 11.2001 3V1ZM9.10909 3.54601C9.20496 3.35785 9.35794 3.20487 9.5461 3.10899L8.63812 1.32698C8.07363 1.6146 7.61469 2.07354 7.32707 2.63803L9.10909 3.54601ZM3.00009 13L14.0001 13V11L3.00009 11L3.00009 13ZM4.29298 8.29289L2.42436 10.1615L3.83857 11.5757L5.7072 9.70711L4.29298 8.29289ZM2.42436 13.8385L4.29299 15.7071L5.7072 14.2929L3.83857 12.4243L2.42436 13.8385ZM2.42436 10.1615C2.23802 10.3479 2.05518 10.5296 1.91433 10.6955C1.7659 10.8704 1.60633 11.0922 1.51219 11.382L3.41431 12C3.39436 12.0614 3.37089 12.0701 3.43901 11.9899C3.51471 11.9007 3.62889 11.7854 3.83857 11.5757L2.42436 10.1615ZM3.83857 12.4243C3.6289 12.2146 3.51472 12.0993 3.43901 12.0101C3.37089 11.9299 3.39436 11.9386 3.41431 12L1.51219 12.618C1.60633 12.9078 1.7659 13.1296 1.91433 13.3045C2.05518 13.4704 2.23802 13.6521 2.42435 13.8385L3.83857 12.4243ZM1.51219 11.382C1.38168 11.7837 1.38168 12.2163 1.51219 12.618L3.41431 12V12L1.51219 11.382Z" fill="#EEEEF2"/>
</svg>
