<svg width="24" height="24" viewBox="0 0 24 24" fill="none" xmlns="http://www.w3.org/2000/svg">
<path d="M8 6C8.55228 6 9 5.55228 9 5C9 4.44772 8.55228 4 8 4V6ZM14 4C13.4477 4 13 4.44772 13 5C13 5.55228 13.4477 6 14 6V4ZM10 20C10.5523 20 11 19.5523 11 19C11 18.4477 10.5523 18 10 18V20ZM15 18C14.4477 18 14 18.4477 14 19C14 19.5523 14.4477 20 15 20V18ZM3.21799 17.908L2.32698 18.362L2.32698 18.362L3.21799 17.908ZM4.09202 18.782L4.54601 17.891L4.54601 17.891L4.09202 18.782ZM20.782 17.908L19.891 17.454L19.891 17.454L20.782 17.908ZM19.908 18.782L20.362 19.673L20.362 19.673L19.908 18.782ZM20.782 6.09202L19.891 6.54601L19.891 6.54601L20.782 6.09202ZM19.908 5.21799L20.362 4.32698L20.362 4.32698L19.908 5.21799ZM3.21799 6.09202L2.32698 5.63803L2.32698 5.63803L3.21799 6.09202ZM4.09202 5.21799L3.63803 4.32698L3.63803 4.32698L4.09202 5.21799ZM8.70711 2.29289C8.31658 1.90237 7.68342 1.90237 7.29289 2.29289C6.90237 2.68342 6.90237 3.31658 7.29289 3.70711L8.70711 2.29289ZM9.29289 4.29289L10 3.58579L10 3.58579L9.29289 4.29289ZM9.29289 5.70711L8.58579 5L8.58579 5L9.29289 5.70711ZM7.29289 6.29289C6.90237 6.68342 6.90237 7.31658 7.29289 7.70711C7.68342 8.09763 8.31658 8.09763 8.70711 7.70711L7.29289 6.29289ZM16.7071 17.7071C17.0976 17.3166 17.0976 16.6834 16.7071 16.2929C16.3166 15.9024 15.6834 15.9024 15.2929 16.2929L16.7071 17.7071ZM14.7071 19.7071L14 20.4142L14 20.4142L14.7071 19.7071ZM15.2929 21.7071C15.6834 22.0976 16.3166 22.0976 16.7071 21.7071C17.0976 21.3166 17.0976 20.6834 16.7071 20.2929L15.2929 21.7071ZM20 8.2V15.8H22V8.2H20ZM4 15.8V8.2H2V15.8H4ZM6.2 6H8V4H6.2V6ZM14 6H17.8V4H14V6ZM10 18H6.2V20H10V18ZM17.8 18H15V20H17.8V18ZM2 15.8C2 16.3436 1.99922 16.8114 2.03057 17.195C2.06287 17.5904 2.13419 17.9836 2.32698 18.362L4.10899 17.454C4.0838 17.4045 4.04612 17.3038 4.02393 17.0322C4.00078 16.7488 4 16.3766 4 15.8H2ZM6.2 18C5.62345 18 5.25117 17.9992 4.96784 17.9761C4.69617 17.9539 4.59545 17.9162 4.54601 17.891L3.63803 19.673C4.01641 19.8658 4.40963 19.9371 4.80497 19.9694C5.18864 20.0008 5.65645 20 6.2 20V18ZM2.32698 18.362C2.6146 18.9265 3.07354 19.3854 3.63803 19.673L4.54601 17.891C4.35785 17.7951 4.20487 17.6422 4.10899 17.454L2.32698 18.362ZM20 15.8C20 16.3766 19.9992 16.7488 19.9761 17.0322C19.9539 17.3038 19.9162 17.4045 19.891 17.454L21.673 18.362C21.8658 17.9836 21.9371 17.5904 21.9694 17.195C22.0008 16.8114 22 16.3436 22 15.8H20ZM17.8 20C18.3436 20 18.8114 20.0008 19.195 19.9694C19.5904 19.9371 19.9836 19.8658 20.362 19.673L19.454 17.891C19.4045 17.9162 19.3038 17.9539 19.0322 17.9761C18.7488 17.9992 18.3766 18 17.8 18V20ZM19.891 17.454C19.7951 17.6422 19.6422 17.7951 19.454 17.891L20.362 19.673C20.9265 19.3854 21.3854 18.9265 21.673 18.362L19.891 17.454ZM22 8.2C22 7.65645 22.0008 7.18864 21.9694 6.80497C21.9371 6.40963 21.8658 6.01641 21.673 5.63803L19.891 6.54601C19.9162 6.59545 19.9539 6.69617 19.9761 6.96784C19.9992 7.25117 20 7.62345 20 8.2H22ZM17.8 6C18.3766 6 18.7488 6.00078 19.0322 6.02393C19.3038 6.04612 19.4045 6.0838 19.454 6.10899L20.362 4.32698C19.9836 4.13419 19.5904 4.06287 19.195 4.03057C18.8114 3.99922 18.3436 4 17.8 4V6ZM21.673 5.63803C21.3854 5.07354 20.9265 4.6146 20.362 4.32698L19.454 6.10899C19.6422 6.20487 19.7951 6.35785 19.891 6.54601L21.673 5.63803ZM4 8.2C4 7.62345 4.00078 7.25117 4.02393 6.96784C4.04612 6.69617 4.0838 6.59545 4.10899 6.54601L2.32698 5.63803C2.13419 6.01641 2.06287 6.40963 2.03057 6.80497C1.99922 7.18864 2 7.65645 2 8.2H4ZM6.2 4C5.65645 4 5.18864 3.99922 4.80497 4.03057C4.40963 4.06287 4.01641 4.13419 3.63803 4.32698L4.54601 6.10899C4.59545 6.0838 4.69617 6.04612 4.96784 6.02393C5.25117 6.00078 5.62345 6 6.2 6V4ZM4.10899 6.54601C4.20487 6.35785 4.35785 6.20487 4.54601 6.10899L3.63803 4.32698C3.07354 4.6146 2.6146 5.07354 2.32698 5.63803L4.10899 6.54601ZM7.29289 3.70711L8.58579 5L10 3.58579L8.70711 2.29289L7.29289 3.70711ZM8.58579 5L7.29289 6.29289L8.70711 7.70711L10 6.41421L8.58579 5ZM8.58579 5L8.58579 5L10 6.41421C10.781 5.63317 10.781 4.36684 10 3.58579L8.58579 5ZM15.2929 16.2929L14 17.5858L15.4142 19L16.7071 17.7071L15.2929 16.2929ZM14 20.4142L15.2929 21.7071L16.7071 20.2929L15.4142 19L14 20.4142ZM14 17.5858C13.219 18.3668 13.219 19.6332 14 20.4142L15.4142 19L15.4142 19L14 17.5858Z" fill="#EA3800"/>
<path d="M13.0028 9.18182V15H11.7727V10.3494H11.7386L10.4062 11.1847V10.0938L11.8466 9.18182H13.0028Z" fill="#EA3800"/>
</svg>
