<svg width="24" height="24" viewBox="0 0 24 24" fill="none" xmlns="http://www.w3.org/2000/svg">
<path d="M18 14L16 12M16 12L14 10M16 12L14 14M16 12L18 10M19 7V4.47703C19 3.76957 18.2855 3.28581 17.6286 3.54855L10.2572 6.49711C9.4979 6.80084 9 7.53625 9 8.35406V15.6459C9 16.4637 9.4979 17.1992 10.2572 17.5029L17.6286 20.4514C18.2855 20.7142 19 20.2304 19 19.523V17M6 17H8C8.55228 17 9 16.5523 9 16V8C9 7.44771 8.55228 7 8 7H6C4.89543 7 4 7.89543 4 9V15C4 16.1046 4.89543 17 6 17Z" stroke="#F2EFEE" stroke-width="2" stroke-linecap="round"/>
</svg>
