<svg width="14" height="20" viewBox="0 0 14 20" fill="none" xmlns="http://www.w3.org/2000/svg">
<path d="M7 0.0128909C4.05448 0.0128909 1.66667 2.40071 1.66667 5.34622C1.66667 8.29174 4.05448 10.6796 7 10.6796C9.94552 10.6796 12.3333 8.29174 12.3333 5.34622C12.3333 2.40071 9.94552 0.0128909 7 0.0128909ZM6 19C6 19.5523 6.44772 20 7 20C7.55228 20 8 19.5523 8 19H6ZM8 5.34622C8 5.34051 8 5.33487 8 5.3293C8 5.32374 8 5.31825 8 5.31283C8 5.30741 8 5.30207 8 5.2968C8 5.29153 8 5.28633 8 5.2812C8 5.27608 8 5.27103 8 5.26605C8 5.26108 8 5.25617 8 5.25134C8 5.24651 8 5.24175 8 5.23707C8 5.23238 8 5.22777 8 5.22323C8 5.21868 8 5.21422 8 5.20982C8 5.20542 8 5.2011 8 5.19684C8 5.19259 8 5.18841 8 5.1843C8 5.18019 8 5.17615 8 5.17218C8 5.16822 8 5.16432 8 5.16049C8 5.15667 8 5.15291 8 5.14923C8 5.14555 8 5.14193 8 5.13839C8 5.13485 8 5.13138 8 5.12797C8 5.12457 8 5.12124 8 5.11798C8 5.11471 8 5.11152 8 5.1084C8 5.10528 8 5.10222 8 5.09924C8 5.09625 8 5.09334 8 5.09049C8 5.08765 8 5.08487 8 5.08216C8 5.07946 8 5.07682 8 5.07425C8 5.07167 8 5.06917 8 5.06674C8 5.0643 8 5.06194 8 5.05964C8 5.05734 8 5.05511 8 5.05295C8 5.05079 8 5.04869 8 5.04667C8 5.04464 8 5.04268 8 5.04079C8 5.0389 8 5.03707 8 5.03531C8 5.03355 8 5.03186 8 5.03024C8 5.02861 8 5.02705 8 5.02556C8 5.02407 8 5.02264 8 5.02128C8 5.01993 8 5.01863 8 5.0174C8 5.01618 8 5.01501 8 5.01392C8 5.01282 8 5.01179 8 5.01083C8 5.00986 8 5.00896 8 5.00812C8 5.00729 8 5.00652 8 5.00581C8 5.00511 8 5.00447 8 5.00389C8 5.00331 8 5.0028 8 5.00235C8 5.00191 8 5.00152 8 5.0012C8 5.00088 8 5.00063 8 5.00044C8 5.00024 8 5.00012 8 5.00005C8 4.99999 7 4.99998 6 5.00004C6 5.00011 6 5.00023 6 5.00042C6 5.00061 6 5.00086 6 5.00117C6 5.00148 6 5.00186 6 5.00229C6 5.00273 6 5.00323 6 5.00379C6 5.00436 6 5.00498 6 5.00567C6 5.00635 6 5.0071 6 5.00791C6 5.00872 6 5.00959 6 5.01052C6 5.01145 6 5.01245 6 5.0135C6 5.01455 6 5.01567 6 5.01685C6 5.01802 6 5.01926 6 5.02055C6 5.02185 6 5.02321 6 5.02463C6 5.02604 6 5.02752 6 5.02906C6 5.0306 6 5.03219 6 5.03385C6 5.03551 6 5.03722 6 5.039C6 5.04078 6 5.04261 6 5.04451C6 5.0464 6 5.04835 6 5.05037C6 5.05238 6 5.05445 6 5.05658C6 5.05871 6 5.0609 6 5.06314C6 5.06539 6 5.0677 6 5.07006C6 5.07242 6 5.07484 6 5.07732C6 5.0798 6 5.08234 6 5.08493C6 5.08752 6 5.09017 6 5.09288C6 5.09559 6 5.09836 6 5.10118C6 5.104 6 5.10688 6 5.10982C6 5.11275 6 5.11575 6 5.1188C6 5.12184 6 5.12495 6 5.12811C6 5.13127 6 5.13449 6 5.13777C6 5.14104 6 5.14437 6 5.14775C6 5.15114 6 5.15458 6 5.15808C6 5.16157 6 5.16512 6 5.16873C6 5.17234 6 5.176 6 5.17971C6 5.18343 6 5.1872 6 5.19103C6 5.19485 6 5.19873 6 5.20267C6 5.2066 6 5.21059 6 5.21463C6 5.21867 6 5.22277 6 5.22692C6 5.23107 6 5.23528 6 5.23953C6 5.24379 6 5.2481 6 5.25246C6 5.25683 6 5.26125 6 5.26572C6 5.27019 6 5.27471 6 5.27928C6 5.28386 6 5.28849 6 5.29317C6 5.29785 6 5.30258 6 5.30737C6 5.31215 6 5.31699 6 5.32188C6 5.32677 6 5.33171 6 5.3367C6 5.34169 6 5.34674 6 5.35183C6 5.35693 6 5.36207 6 5.36727C6 5.37247 6 5.37772 6 5.38301C6 5.38831 6 5.39366 6 5.39906C6 5.40446 6 5.40992 6 5.41542C6 5.42092 6 5.42647 6 5.43207C6 5.43767 6 5.44332 6 5.44902C6 5.45472 6 5.46048 6 5.46628C6 5.47208 6 5.47792 6 5.48382C6 5.48972 6 5.49567 6 5.50167C6 5.50766 6 5.51371 6 5.5198C6 5.5259 6 5.53204 6 5.53823C6 5.54442 6 5.55066 6 5.55695C6 5.56323 6 5.56957 6 5.57595C6 5.58233 6 5.58877 6 5.59524C6 5.60172 6 5.60825 6 5.61482C6 5.62139 6 5.62802 6 5.63468C6 5.64135 6 5.64806 6 5.65483C6 5.66159 6 5.66839 6 5.67525C6 5.6821 6 5.689 6 5.69595C6 5.7029 6 5.70989 6 5.71693C6 5.72397 6 5.73105 6 5.73818C6 5.74532 6 5.75249 6 5.75971C6 5.76693 6 5.7742 6 5.78151C6 5.78883 6 5.79618 6 5.80358C6 5.81099 6 5.81843 6 5.82592C6 5.83342 6 5.84095 6 5.84853C6 5.85611 6 5.86374 6 5.87141C6 5.87907 6 5.88679 6 5.89454C6 5.9023 6 5.9101 6 5.91794C6 5.92579 6 5.93367 6 5.9416C6 5.94953 6 5.95751 6 5.96552C6 5.97354 6 5.9816 6 5.9897C6 5.9978 6 6.00595 6 6.01414C6 6.02232 6 6.03055 6 6.03882C6 6.0471 6 6.05541 6 6.06377C6 6.07212 6 6.08052 6 6.08896C6 6.0974 6 6.10588 6 6.1144C6 6.12292 6 6.13149 6 6.14009C6 6.1487 6 6.15734 6 6.16603C6 6.17471 6 6.18344 6 6.19221C6 6.20098 6 6.20979 6 6.21863C6 6.22748 6 6.23637 6 6.2453C6 6.25423 6 6.2632 6 6.27221C6 6.28122 6 6.29026 6 6.29935C6 6.30844 6 6.31757 6 6.32673C6 6.3359 6 6.34511 6 6.35435C6 6.36359 6 6.37288 6 6.3822C6 6.39152 6 6.40088 6 6.41028C6 6.41968 6 6.42912 6 6.43859C6 6.44807 6 6.45758 6 6.46713C6 6.47669 6 6.48628 6 6.4959C6 6.50553 6 6.51519 6 6.5249C6 6.5346 6 6.54434 6 6.55411C6 6.56389 6 6.5737 6 6.58355C6 6.5934 6 6.60329 6 6.61321C6 6.62314 6 6.6331 6 6.64309C6 6.65309 6 6.66312 6 6.67319C6 6.68326 6 6.69336 6 6.7035C6 6.71364 6 6.72382 6 6.73403C6 6.74424 6 6.75448 6 6.76477C6 6.77505 6 6.78536 6 6.79572C6 6.80607 6 6.81645 6 6.82687C6 6.8373 6 6.84775 6 6.85824C6 6.86873 6 6.87926 6 6.88981C6 6.90037 6 6.91097 6 6.92159C6 6.93222 6 6.94288 6 6.95357C6 6.96427 6 6.97499 6 6.98575C6 6.99651 6 7.00731 6 7.01813C6 7.02896 6 7.03982 6 7.05071C6 7.06161 6 7.07253 6 7.08349C6 7.09445 6 7.10544 6 7.11646C6 7.12748 6 7.13854 6 7.14962C6 7.16071 6 7.17183 6 7.18298C6 7.19413 6 7.20531 6 7.21652C6 7.22774 6 7.23898 6 7.25026C6 7.26153 6 7.27284 6 7.28418C6 7.29551 6 7.30688 6 7.31828C6 7.32968 6 7.34111 6 7.35257C6 7.36403 6 7.37552 6 7.38704C6 7.39856 6 7.41011 6 7.42169C6 7.43327 6 7.44488 6 7.45652C6 7.46816 6 7.47983 6 7.49153C6 7.50323 6 7.51495 6 7.52671C6 7.53847 6 7.55025 6 7.56207C6 7.57388 6 7.58572 6 7.59759C6 7.60947 6 7.62137 6 7.63329C6 7.64522 6 7.65718 6 7.66916C6 7.68114 6 7.69316 6 7.7052C6 7.71724 6 7.7293 6 7.7414C6 7.75349 6 7.76561 6 7.77776C6 7.78991 6 7.80209 6 7.81429C6 7.82649 6 7.83872 6 7.85098C6 7.86323 6 7.87552 6 7.88783C6 7.90013 6 7.91247 6 7.92483C6 7.93719 6 7.94958 6 7.96199C6 7.9744 6 7.98684 6 7.99931C6 8.01177 6 8.02426 6 8.03678C6 8.04929 6 8.06183 6 8.0744C6 8.08696 6 8.09955 6 8.11217C6 8.12478 6 8.13742 6 8.15008C6 8.16275 6 8.17544 6 8.18815C6 8.20086 6 8.2136 6 8.22636C6 8.23912 6 8.2519 6 8.26471C6 8.27752 6 8.29035 6 8.3032C6 8.31606 6 8.32894 6 8.34184C6 8.35474 6 8.36766 6 8.38061C6 8.39356 6 8.40652 6 8.41952C6 8.43251 6 8.44552 6 8.45856C6 8.4716 6 8.48466 6 8.49774C6 8.51082 6 8.52392 6 8.53705C6 8.55017 6 8.56332 6 8.57649C6 8.58965 6 8.60284 6 8.61605C6 8.62927 6 8.6425 6 8.65575C6 8.669 6 8.68228 6 8.69557C6 8.70886 6 8.72218 6 8.73551C6 8.74885 6 8.76221 6 8.77558C6 8.78896 6 8.80235 6 8.81577C6 8.82918 6 8.84262 6 8.85607C6 8.86953 6 8.883 6 8.8965C6 8.90999 6 8.9235 6 8.93704C6 8.95057 6 8.96412 6 8.97769C6 8.99126 6 9.00485 6 9.01846C6 9.03206 6 9.04569 6 9.05933C6 9.07298 6 9.08664 6 9.10032C6 9.114 6 9.1277 6 9.14141C6 9.15513 6 9.16886 6 9.18261C6 9.19636 6 9.21013 6 9.22392C6 9.2377 6 9.25151 6 9.26532C6 9.27914 6 9.29298 6 9.30683C6 9.32069 6 9.33456 6 9.34844C6 9.36233 6 9.37623 6 9.39015C6 9.40407 6 9.418 6 9.43195C6 9.4459 6 9.45987 6 9.47385C6 9.48783 6 9.50183 6 9.51584C6 9.52985 6 9.54388 6 9.55792C6 9.57196 6 9.58602 6 9.60009C6 9.61416 6 9.62825 6 9.64235C6 9.65645 6 9.67057 6 9.6847C6 9.69883 6 9.71297 6 9.72713C6 9.74129 6 9.75546 6 9.76965C6 9.78383 6 9.79803 6 9.81224C6 9.82646 6 9.84068 6 9.85492C6 9.86916 6 9.88341 6 9.89768C6 9.91194 6 9.92622 6 9.94051C6 9.9548 6 9.9691 6 9.98342C6 9.99773 6 10.0121 6 10.0264C6 10.0407 6 10.0551 6 10.0695C6 10.0838 6 10.0982 6 10.1126C6 10.127 6 10.1414 6 10.1558C6 10.1702 6 10.1846 6 10.199C6 10.2135 6 10.2279 6 10.2424C6 10.2568 6 10.2713 6 10.2858C6 10.3002 6 10.3147 6 10.3292C6 10.3437 6 10.3582 6 10.3727C6 10.3872 6 10.4018 6 10.4163C6 10.4308 6 10.4454 6 10.4599C6 10.4745 6 10.489 6 10.5036C6 10.5182 6 10.5328 6 10.5474C6 10.562 6 10.5766 6 10.5912C6 10.6058 6 10.6204 6 10.635C6 10.6496 6 10.6643 6 10.6789C6 10.6935 6 10.7082 6 10.7228C6 10.7375 6 10.7522 6 10.7668C6 10.7815 6 10.7962 6 10.8109C6 10.8256 6 10.8403 6 10.855C6 10.8697 6 10.8844 6 10.8991C6 10.9138 6 10.9285 6 10.9432C6 10.958 6 10.9727 6 10.9874C6 11.0022 6 11.0169 6 11.0317C6 11.0464 6 11.0612 6 11.0759C6 11.0907 6 11.1055 6 11.1202C6 11.135 6 11.1498 6 11.1646C6 11.1794 6 11.1941 6 11.2089C6 11.2237 6 11.2385 6 11.2533C6 11.2681 6 11.2829 6 11.2978C6 11.3126 6 11.3274 6 11.3422C6 11.357 6 11.3718 6 11.3867C6 11.4015 6 11.4163 6 11.4312C6 11.446 6 11.4608 6 11.4757C6 11.4905 6 11.5054 6 11.5202C6 11.5351 6 11.5499 6 11.5648C6 11.5796 6 11.5945 6 11.6093C6 11.6242 6 11.639 6 11.6539C6 11.6688 6 11.6836 6 11.6985C6 11.7134 6 11.7282 6 11.7431C6 11.758 6 11.7728 6 11.7877C6 11.8026 6 11.8175 6 11.8323C6 11.8472 6 11.8621 6 11.877C6 11.8918 6 11.9067 6 11.9216C6 11.9365 6 11.9513 6 11.9662C6 11.9811 6 11.996 6 12.0109C6 12.0257 6 12.0406 6 12.0555C6 12.0704 6 12.0852 6 12.1001C6 12.115 6 12.1299 6 12.1448C6 12.1596 6 12.1745 6 12.1894C6 12.2042 6 12.2191 6 12.234C6 12.2489 6 12.2637 6 12.2786C6 12.2935 6 12.3083 6 12.3232C6 12.3381 6 12.3529 6 12.3678C6 12.3826 6 12.3975 6 12.4124C6 12.4272 6 12.4421 6 12.4569C6 12.4718 6 12.4866 6 12.5015C6 12.5163 6 12.5311 6 12.546C6 12.5608 6 12.5757 6 12.5905C6 12.6053 6 12.6201 6 12.635C6 12.6498 6 12.6646 6 12.6794C6 12.6942 6 12.7091 6 12.7239C6 12.7387 6 12.7535 6 12.7683C6 12.7831 6 12.7979 6 12.8126C6 12.8274 6 12.8422 6 12.857C6 12.8718 6 12.8866 6 12.9013C6 12.9161 6 12.9309 6 12.9456C6 12.9604 6 12.9751 6 12.9899C6 13.0046 6 13.0193 6 13.0341C6 13.0488 6 13.0635 6 13.0783C6 13.093 6 13.1077 6 13.1224C6 13.1371 6 13.1518 6 13.1665C6 13.1812 6 13.1959 6 13.2106C6 13.2252 6 13.2399 6 13.2546C6 13.2692 6 13.2839 6 13.2985C6 13.3132 6 13.3278 6 13.3425C6 13.3571 6 13.3717 6 13.3863C6 13.4009 6 13.4156 6 13.4302C6 13.4448 6 13.4593 6 13.4739C6 13.4885 6 13.5031 6 13.5176C6 13.5322 6 13.5468 6 13.5613C6 13.5758 6 13.5904 6 13.6049C6 13.6194 6 13.6339 6 13.6485C6 13.663 6 13.6775 6 13.6919C6 13.7064 6 13.7209 6 13.7354C6 13.7498 6 13.7643 6 13.7787C6 13.7932 6 13.8076 6 13.822C6 13.8364 6 13.8508 6 13.8652C6 13.8796 6 13.894 6 13.9084C6 13.9228 6 13.9371 6 13.9515C6 13.9658 6 13.9802 6 13.9945C6 14.0088 6 14.0232 6 14.0375C6 14.0518 6 14.0661 6 14.0803C6 14.0946 6 14.1089 6 14.1231C6 14.1374 6 14.1516 6 14.1659C6 14.1801 6 14.1943 6 14.2085C6 14.2227 6 14.2369 6 14.251C6 14.2652 6 14.2794 6 14.2935C6 14.3077 6 14.3218 6 14.3359C6 14.35 6 14.3641 6 14.3782C6 14.3923 6 14.4064 6 14.4204C6 14.4345 6 14.4485 6 14.4626C6 14.4766 6 14.4906 6 14.5046C6 14.5186 6 14.5326 6 14.5465C6 14.5605 6 14.5745 6 14.5884C6 14.6023 6 14.6163 6 14.6302C6 14.6441 6 14.6579 6 14.6718C6 14.6857 6 14.6995 6 14.7134C6 14.7272 6 14.741 6 14.7548C6 14.7686 6 14.7824 6 14.7962C6 14.81 6 14.8237 6 14.8374C6 14.8512 6 14.8649 6 14.8786C6 14.8923 6 14.906 6 14.9196C6 14.9333 6 14.9469 6 14.9606C6 14.9742 6 14.9878 6 15.0014C6 15.015 6 15.0285 6 15.0421C6 15.0557 6 15.0692 6 15.0827C6 15.0962 6 15.1097 6 15.1232C6 15.1367 6 15.1501 6 15.1635C6 15.177 6 15.1904 6 15.2038C6 15.2172 6 15.2306 6 15.2439C6 15.2573 6 15.2706 6 15.2839C6 15.2972 6 15.3105 6 15.3238C6 15.3371 6 15.3503 6 15.3636C6 15.3768 6 15.39 6 15.4032C6 15.4164 6 15.4296 6 15.4427C6 15.4559 6 15.469 6 15.4821C6 15.4952 6 15.5083 6 15.5213C6 15.5344 6 15.5474 6 15.5605C6 15.5735 6 15.5865 6 15.5994C6 15.6124 6 15.6253 6 15.6383C6 15.6512 6 15.6641 6 15.677C6 15.6899 6 15.7027 6 15.7155C6 15.7284 6 15.7412 6 15.754C6 15.7668 6 15.7795 6 15.7922C6 15.805 6 15.8177 6 15.8304C6 15.8431 6 15.8557 6 15.8684C6 15.881 6 15.8936 6 15.9062C6 15.9188 6 15.9314 6 15.9439C6 15.9565 6 15.969 6 15.9815C6 15.994 6 16.0064 6 16.0189C6 16.0313 6 16.0437 6 16.0561C6 16.0685 6 16.0809 6 16.0932C6 16.1055 6 16.1178 6 16.1301C6 16.1424 6 16.1547 6 16.1669C6 16.1791 6 16.1913 6 16.2035C6 16.2157 6 16.2278 6 16.24C6 16.2521 6 16.2642 6 16.2762C6 16.2883 6 16.3003 6 16.3124C6 16.3244 6 16.3364 6 16.3483C6 16.3603 6 16.3722 6 16.3841C6 16.396 6 16.4079 6 16.4197C6 16.4316 6 16.4434 6 16.4552C6 16.4669 6 16.4787 6 16.4904C6 16.5022 6 16.5139 6 16.5255C6 16.5372 6 16.5488 6 16.5604C6 16.5721 6 16.5836 6 16.5952C6 16.6067 6 16.6183 6 16.6298C6 16.6412 6 16.6527 6 16.6641C6 16.6756 6 16.687 6 16.6983C6 16.7097 6 16.721 6 16.7323C6 16.7437 6 16.7549 6 16.7662C6 16.7774 6 16.7886 6 16.7998C6 16.811 6 16.8222 6 16.8333C6 16.8444 6 16.8555 6 16.8665C6 16.8776 6 16.8886 6 16.8996C6 16.9106 6 16.9216 6 16.9325C6 16.9434 6 16.9543 6 16.9652C6 16.976 6 16.9868 6 16.9976C6 17.0084 6 17.0192 6 17.0299C6 17.0407 6 17.0514 6 17.062C6 17.0727 6 17.0833 6 17.0939C6 17.1045 6 17.115 6 17.1256C6 17.1361 6 17.1466 6 17.157C6 17.1675 6 17.1779 6 17.1883C6 17.1987 6 17.209 6 17.2194C6 17.2297 6 17.24 6 17.2502C6 17.2605 6 17.2707 6 17.2809C6 17.291 6 17.3012 6 17.3113C6 17.3214 6 17.3314 6 17.3415C6 17.3515 6 17.3615 6 17.3715C6 17.3814 6 17.3914 6 17.4012C6 17.4111 6 17.421 6 17.4308C6 17.4406 6 17.4504 6 17.4601C6 17.4699 6 17.4796 6 17.4892C6 17.4989 6 17.5085 6 17.5181C6 17.5277 6 17.5373 6 17.5468C6 17.5563 6 17.5658 6 17.5752C6 17.5846 6 17.594 6 17.6034C6 17.6128 6 17.6221 6 17.6314C6 17.6407 6 17.6499 6 17.6591C6 17.6683 6 17.6775 6 17.6866C6 17.6957 6 17.7048 6 17.7139C6 17.7229 6 17.7319 6 17.7409C6 17.7499 6 17.7588 6 17.7677C6 17.7766 6 17.7854 6 17.7943C6 17.8031 6 17.8118 6 17.8206C6 17.8293 6 17.838 6 17.8466C6 17.8553 6 17.8639 6 17.8724C6 17.881 6 17.8895 6 17.898C6 17.9065 6 17.9149 6 17.9233C6 17.9317 6 17.9401 6 17.9484C6 17.9567 6 17.965 6 17.9732C6 17.9814 6 17.9896 6 17.9978C6 18.0059 6 18.014 6 18.0221C6 18.0302 6 18.0382 6 18.0461C6 18.0541 6 18.0621 6 18.0699C6 18.0778 6 18.0857 6 18.0935C6 18.1013 6 18.109 6 18.1167C6 18.1245 6 18.1321 6 18.1398C6 18.1474 6 18.155 6 18.1625C6 18.17 6 18.1775 6 18.185C6 18.1924 6 18.1998 6 18.2072C6 18.2145 6 18.2219 6 18.2291C6 18.2364 6 18.2436 6 18.2508C6 18.258 6 18.2651 6 18.2722C6 18.2793 6 18.2863 6 18.2933C6 18.3003 6 18.3073 6 18.3142C6 18.3211 6 18.3279 6 18.3347C6 18.3415 6 18.3483 6 18.355C6 18.3617 6 18.3684 6 18.375C6 18.3816 6 18.3882 6 18.3947C6 18.4013 6 18.4077 6 18.4142C6 18.4206 6 18.427 6 18.4333C6 18.4397 6 18.446 6 18.4522C6 18.4584 6 18.4646 6 18.4708C6 18.4769 6 18.483 6 18.4891C6 18.4951 6 18.5011 6 18.5071C6 18.513 6 18.5189 6 18.5248C6 18.5306 6 18.5364 6 18.5422C6 18.5479 6 18.5536 6 18.5593C6 18.5649 6 18.5705 6 18.5761C6 18.5816 6 18.5871 6 18.5926C6 18.598 6 18.6034 6 18.6088C6 18.6141 6 18.6194 6 18.6247C6 18.6299 6 18.6351 6 18.6403C6 18.6454 6 18.6505 6 18.6556C6 18.6606 6 18.6656 6 18.6705C6 18.6755 6 18.6804 6 18.6852C6 18.6901 6 18.6948 6 18.6996C6 18.7043 6 18.709 6 18.7136C6 18.7183 6 18.7228 6 18.7274C6 18.7319 6 18.7364 6 18.7408C6 18.7452 6 18.7496 6 18.7539C6 18.7582 6 18.7624 6 18.7666C6 18.7708 6 18.775 6 18.7791C6 18.7832 6 18.7872 6 18.7912C6 18.7952 6 18.7992 6 18.803C6 18.8069 6 18.8107 6 18.8145C6 18.8183 6 18.822 6 18.8257C6 18.8293 6 18.8329 6 18.8365C6 18.84 6 18.8435 6 18.847C6 18.8504 6 18.8538 6 18.8571C6 18.8605 6 18.8638 6 18.867C6 18.8702 6 18.8734 6 18.8765C6 18.8796 6 18.8826 6 18.8856C6 18.8886 6 18.8915 6 18.8944C6 18.8973 6 18.9001 6 18.9029C6 18.9057 6 18.9084 6 18.911C6 18.9137 6 18.9163 6 18.9188C6 18.9214 6 18.9238 6 18.9263C6 18.9287 6 18.931 6 18.9333C6 18.9357 6 18.9379 6 18.9401C6 18.9423 6 18.9444 6 18.9465C6 18.9486 6 18.9506 6 18.9525C6 18.9545 6 18.9564 6 18.9582C6 18.9601 6 18.9618 6 18.9635C6 18.9653 6 18.9669 6 18.9685C6 18.9701 6 18.9717 6 18.9731C6 18.9746 6 18.976 6 18.9774C6 18.9788 6 18.9801 6 18.9813C6 18.9825 6 18.9837 6 18.9848C6 18.9859 6 18.987 6 18.988C6 18.989 6 18.9899 6 18.9908C6 18.9917 6 18.9925 6 18.9932C6 18.994 6 18.9947 6 18.9953C6 18.9959 6 18.9965 6 18.997C6 18.9975 6 18.9979 6 18.9983C6 18.9987 6 18.999 6 18.9992C6 18.9995 6 18.9997 6 18.9998C6 18.9999 6 19 7 19C8 19 8 18.9999 8 18.9998C8 18.9997 8 18.9995 8 18.9992C8 18.999 8 18.9987 8 18.9983C8 18.9979 8 18.9975 8 18.997C8 18.9965 8 18.9959 8 18.9953C8 18.9947 8 18.994 8 18.9932C8 18.9925 8 18.9917 8 18.9908C8 18.9899 8 18.989 8 18.988C8 18.987 8 18.9859 8 18.9848C8 18.9837 8 18.9825 8 18.9813C8 18.9801 8 18.9788 8 18.9774C8 18.976 8 18.9746 8 18.9731C8 18.9717 8 18.9701 8 18.9685C8 18.9669 8 18.9653 8 18.9635C8 18.9618 8 18.9601 8 18.9582C8 18.9564 8 18.9545 8 18.9525C8 18.9506 8 18.9486 8 18.9465C8 18.9444 8 18.9423 8 18.9401C8 18.9379 8 18.9357 8 18.9333C8 18.931 8 18.9287 8 18.9263C8 18.9238 8 18.9214 8 18.9188C8 18.9163 8 18.9137 8 18.911C8 18.9084 8 18.9057 8 18.9029C8 18.9001 8 18.8973 8 18.8944C8 18.8915 8 18.8886 8 18.8856C8 18.8826 8 18.8796 8 18.8765C8 18.8734 8 18.8702 8 18.867C8 18.8638 8 18.8605 8 18.8571C8 18.8538 8 18.8504 8 18.847C8 18.8435 8 18.84 8 18.8365C8 18.8329 8 18.8293 8 18.8257C8 18.822 8 18.8183 8 18.8145C8 18.8107 8 18.8069 8 18.803C8 18.7992 8 18.7952 8 18.7912C8 18.7872 8 18.7832 8 18.7791C8 18.775 8 18.7708 8 18.7666C8 18.7624 8 18.7582 8 18.7539C8 18.7496 8 18.7452 8 18.7408C8 18.7364 8 18.7319 8 18.7274C8 18.7228 8 18.7183 8 18.7136C8 18.709 8 18.7043 8 18.6996C8 18.6948 8 18.6901 8 18.6852C8 18.6804 8 18.6755 8 18.6705C8 18.6656 8 18.6606 8 18.6556C8 18.6505 8 18.6454 8 18.6403C8 18.6351 8 18.6299 8 18.6247C8 18.6194 8 18.6141 8 18.6088C8 18.6034 8 18.598 8 18.5926C8 18.5871 8 18.5816 8 18.5761C8 18.5705 8 18.5649 8 18.5593C8 18.5536 8 18.5479 8 18.5422C8 18.5364 8 18.5306 8 18.5248C8 18.5189 8 18.513 8 18.5071C8 18.5011 8 18.4951 8 18.4891C8 18.483 8 18.4769 8 18.4708C8 18.4646 8 18.4584 8 18.4522C8 18.446 8 18.4397 8 18.4333C8 18.427 8 18.4206 8 18.4142C8 18.4077 8 18.4013 8 18.3947C8 18.3882 8 18.3816 8 18.375C8 18.3684 8 18.3617 8 18.355C8 18.3483 8 18.3415 8 18.3347C8 18.3279 8 18.3211 8 18.3142C8 18.3073 8 18.3003 8 18.2933C8 18.2863 8 18.2793 8 18.2722C8 18.2651 8 18.258 8 18.2508C8 18.2436 8 18.2364 8 18.2291C8 18.2219 8 18.2145 8 18.2072C8 18.1998 8 18.1924 8 18.185C8 18.1775 8 18.17 8 18.1625C8 18.155 8 18.1474 8 18.1398C8 18.1321 8 18.1245 8 18.1167C8 18.109 8 18.1013 8 18.0935C8 18.0857 8 18.0778 8 18.0699C8 18.0621 8 18.0541 8 18.0461C8 18.0382 8 18.0302 8 18.0221C8 18.014 8 18.0059 8 17.9978C8 17.9896 8 17.9814 8 17.9732C8 17.965 8 17.9567 8 17.9484C8 17.9401 8 17.9317 8 17.9233C8 17.9149 8 17.9065 8 17.898C8 17.8895 8 17.881 8 17.8724C8 17.8639 8 17.8553 8 17.8466C8 17.838 8 17.8293 8 17.8206C8 17.8118 8 17.8031 8 17.7943C8 17.7854 8 17.7766 8 17.7677C8 17.7588 8 17.7499 8 17.7409C8 17.7319 8 17.7229 8 17.7139C8 17.7048 8 17.6957 8 17.6866C8 17.6775 8 17.6683 8 17.6591C8 17.6499 8 17.6407 8 17.6314C8 17.6221 8 17.6128 8 17.6034C8 17.594 8 17.5846 8 17.5752C8 17.5658 8 17.5563 8 17.5468C8 17.5373 8 17.5277 8 17.5181C8 17.5085 8 17.4989 8 17.4892C8 17.4796 8 17.4699 8 17.4601C8 17.4504 8 17.4406 8 17.4308C8 17.421 8 17.4111 8 17.4012C8 17.3914 8 17.3814 8 17.3715C8 17.3615 8 17.3515 8 17.3415C8 17.3314 8 17.3214 8 17.3113C8 17.3012 8 17.291 8 17.2809C8 17.2707 8 17.2605 8 17.2502C8 17.24 8 17.2297 8 17.2194C8 17.209 8 17.1987 8 17.1883C8 17.1779 8 17.1675 8 17.157C8 17.1466 8 17.1361 8 17.1256C8 17.115 8 17.1045 8 17.0939C8 17.0833 8 17.0727 8 17.062C8 17.0514 8 17.0407 8 17.0299C8 17.0192 8 17.0084 8 16.9976C8 16.9868 8 16.976 8 16.9652C8 16.9543 8 16.9434 8 16.9325C8 16.9216 8 16.9106 8 16.8996C8 16.8886 8 16.8776 8 16.8665C8 16.8555 8 16.8444 8 16.8333C8 16.8222 8 16.811 8 16.7998C8 16.7886 8 16.7774 8 16.7662C8 16.7549 8 16.7437 8 16.7323C8 16.721 8 16.7097 8 16.6983C8 16.687 8 16.6756 8 16.6641C8 16.6527 8 16.6412 8 16.6298C8 16.6183 8 16.6067 8 16.5952C8 16.5836 8 16.5721 8 16.5604C8 16.5488 8 16.5372 8 16.5255C8 16.5139 8 16.5022 8 16.4904C8 16.4787 8 16.4669 8 16.4552C8 16.4434 8 16.4316 8 16.4197C8 16.4079 8 16.396 8 16.3841C8 16.3722 8 16.3603 8 16.3483C8 16.3364 8 16.3244 8 16.3124C8 16.3003 8 16.2883 8 16.2762C8 16.2642 8 16.2521 8 16.24C8 16.2278 8 16.2157 8 16.2035C8 16.1913 8 16.1791 8 16.1669C8 16.1547 8 16.1424 8 16.1301C8 16.1178 8 16.1055 8 16.0932C8 16.0809 8 16.0685 8 16.0561C8 16.0437 8 16.0313 8 16.0189C8 16.0064 8 15.994 8 15.9815C8 15.969 8 15.9565 8 15.9439C8 15.9314 8 15.9188 8 15.9062C8 15.8936 8 15.881 8 15.8684C8 15.8557 8 15.8431 8 15.8304C8 15.8177 8 15.805 8 15.7922C8 15.7795 8 15.7668 8 15.754C8 15.7412 8 15.7284 8 15.7155C8 15.7027 8 15.6899 8 15.677C8 15.6641 8 15.6512 8 15.6383C8 15.6253 8 15.6124 8 15.5994C8 15.5865 8 15.5735 8 15.5605C8 15.5474 8 15.5344 8 15.5213C8 15.5083 8 15.4952 8 15.4821C8 15.469 8 15.4559 8 15.4427C8 15.4296 8 15.4164 8 15.4032C8 15.39 8 15.3768 8 15.3636C8 15.3503 8 15.3371 8 15.3238C8 15.3105 8 15.2972 8 15.2839C8 15.2706 8 15.2573 8 15.2439C8 15.2306 8 15.2172 8 15.2038C8 15.1904 8 15.177 8 15.1635C8 15.1501 8 15.1367 8 15.1232C8 15.1097 8 15.0962 8 15.0827C8 15.0692 8 15.0557 8 15.0421C8 15.0285 8 15.015 8 15.0014C8 14.9878 8 14.9742 8 14.9606C8 14.9469 8 14.9333 8 14.9196C8 14.906 8 14.8923 8 14.8786C8 14.8649 8 14.8512 8 14.8374C8 14.8237 8 14.81 8 14.7962C8 14.7824 8 14.7686 8 14.7548C8 14.741 8 14.7272 8 14.7134C8 14.6995 8 14.6857 8 14.6718C8 14.6579 8 14.6441 8 14.6302C8 14.6163 8 14.6023 8 14.5884C8 14.5745 8 14.5605 8 14.5465C8 14.5326 8 14.5186 8 14.5046C8 14.4906 8 14.4766 8 14.4626C8 14.4485 8 14.4345 8 14.4204C8 14.4064 8 14.3923 8 14.3782C8 14.3641 8 14.35 8 14.3359C8 14.3218 8 14.3077 8 14.2935C8 14.2794 8 14.2652 8 14.251C8 14.2369 8 14.2227 8 14.2085C8 14.1943 8 14.1801 8 14.1659C8 14.1516 8 14.1374 8 14.1231C8 14.1089 8 14.0946 8 14.0803C8 14.0661 8 14.0518 8 14.0375C8 14.0232 8 14.0088 8 13.9945C8 13.9802 8 13.9658 8 13.9515C8 13.9371 8 13.9228 8 13.9084C8 13.894 8 13.8796 8 13.8652C8 13.8508 8 13.8364 8 13.822C8 13.8076 8 13.7932 8 13.7787C8 13.7643 8 13.7498 8 13.7354C8 13.7209 8 13.7064 8 13.6919C8 13.6775 8 13.663 8 13.6485C8 13.6339 8 13.6194 8 13.6049C8 13.5904 8 13.5758 8 13.5613C8 13.5468 8 13.5322 8 13.5176C8 13.5031 8 13.4885 8 13.4739C8 13.4593 8 13.4448 8 13.4302C8 13.4156 8 13.4009 8 13.3863C8 13.3717 8 13.3571 8 13.3425C8 13.3278 8 13.3132 8 13.2985C8 13.2839 8 13.2692 8 13.2546C8 13.2399 8 13.2252 8 13.2106C8 13.1959 8 13.1812 8 13.1665C8 13.1518 8 13.1371 8 13.1224C8 13.1077 8 13.093 8 13.0783C8 13.0635 8 13.0488 8 13.0341C8 13.0193 8 13.0046 8 12.9899C8 12.9751 8 12.9604 8 12.9456C8 12.9309 8 12.9161 8 12.9013C8 12.8866 8 12.8718 8 12.857C8 12.8422 8 12.8274 8 12.8126C8 12.7979 8 12.7831 8 12.7683C8 12.7535 8 12.7387 8 12.7239C8 12.7091 8 12.6942 8 12.6794C8 12.6646 8 12.6498 8 12.635C8 12.6201 8 12.6053 8 12.5905C8 12.5757 8 12.5608 8 12.546C8 12.5311 8 12.5163 8 12.5015C8 12.4866 8 12.4718 8 12.4569C8 12.4421 8 12.4272 8 12.4124C8 12.3975 8 12.3826 8 12.3678C8 12.3529 8 12.3381 8 12.3232C8 12.3083 8 12.2935 8 12.2786C8 12.2637 8 12.2489 8 12.234C8 12.2191 8 12.2042 8 12.1894C8 12.1745 8 12.1596 8 12.1448C8 12.1299 8 12.115 8 12.1001C8 12.0852 8 12.0704 8 12.0555C8 12.0406 8 12.0257 8 12.0109C8 11.996 8 11.9811 8 11.9662C8 11.9513 8 11.9365 8 11.9216C8 11.9067 8 11.8918 8 11.877C8 11.8621 8 11.8472 8 11.8323C8 11.8175 8 11.8026 8 11.7877C8 11.7728 8 11.758 8 11.7431C8 11.7282 8 11.7134 8 11.6985C8 11.6836 8 11.6688 8 11.6539C8 11.639 8 11.6242 8 11.6093C8 11.5945 8 11.5796 8 11.5648C8 11.5499 8 11.5351 8 11.5202C8 11.5054 8 11.4905 8 11.4757C8 11.4608 8 11.446 8 11.4312C8 11.4163 8 11.4015 8 11.3867C8 11.3718 8 11.357 8 11.3422C8 11.3274 8 11.3126 8 11.2978C8 11.2829 8 11.2681 8 11.2533C8 11.2385 8 11.2237 8 11.2089C8 11.1941 8 11.1794 8 11.1646C8 11.1498 8 11.135 8 11.1202C8 11.1055 8 11.0907 8 11.0759C8 11.0612 8 11.0464 8 11.0317C8 11.0169 8 11.0022 8 10.9874C8 10.9727 8 10.958 8 10.9432C8 10.9285 8 10.9138 8 10.8991C8 10.8844 8 10.8697 8 10.855C8 10.8403 8 10.8256 8 10.8109C8 10.7962 8 10.7815 8 10.7668C8 10.7522 8 10.7375 8 10.7228C8 10.7082 8 10.6935 8 10.6789C8 10.6643 8 10.6496 8 10.635C8 10.6204 8 10.6058 8 10.5912C8 10.5766 8 10.562 8 10.5474C8 10.5328 8 10.5182 8 10.5036C8 10.489 8 10.4745 8 10.4599C8 10.4454 8 10.4308 8 10.4163C8 10.4018 8 10.3872 8 10.3727C8 10.3582 8 10.3437 8 10.3292C8 10.3147 8 10.3002 8 10.2858C8 10.2713 8 10.2568 8 10.2424C8 10.2279 8 10.2135 8 10.199C8 10.1846 8 10.1702 8 10.1558C8 10.1414 8 10.127 8 10.1126C8 10.0982 8 10.0838 8 10.0695C8 10.0551 8 10.0407 8 10.0264C8 10.0121 8 9.99773 8 9.98342C8 9.9691 8 9.9548 8 9.94051C8 9.92622 8 9.91194 8 9.89768C8 9.88341 8 9.86916 8 9.85492C8 9.84068 8 9.82646 8 9.81224C8 9.79803 8 9.78383 8 9.76965C8 9.75546 8 9.74129 8 9.72713C8 9.71297 8 9.69883 8 9.6847C8 9.67057 8 9.65645 8 9.64235C8 9.62825 8 9.61416 8 9.60009C8 9.58602 8 9.57196 8 9.55792C8 9.54388 8 9.52985 8 9.51584C8 9.50183 8 9.48783 8 9.47385C8 9.45987 8 9.4459 8 9.43195C8 9.418 8 9.40407 8 9.39015C8 9.37623 8 9.36233 8 9.34844C8 9.33456 8 9.32069 8 9.30683C8 9.29298 8 9.27914 8 9.26532C8 9.25151 8 9.2377 8 9.22392C8 9.21013 8 9.19636 8 9.18261C8 9.16886 8 9.15513 8 9.14141C8 9.1277 8 9.114 8 9.10032C8 9.08664 8 9.07298 8 9.05933C8 9.04569 8 9.03206 8 9.01846C8 9.00485 8 8.99126 8 8.97769C8 8.96412 8 8.95057 8 8.93704C8 8.9235 8 8.90999 8 8.8965C8 8.883 8 8.86953 8 8.85607C8 8.84262 8 8.82918 8 8.81577C8 8.80235 8 8.78896 8 8.77558C8 8.76221 8 8.74885 8 8.73551C8 8.72218 8 8.70886 8 8.69557C8 8.68228 8 8.669 8 8.65575C8 8.6425 8 8.62927 8 8.61605C8 8.60284 8 8.58965 8 8.57649C8 8.56332 8 8.55017 8 8.53705C8 8.52392 8 8.51082 8 8.49774C8 8.48466 8 8.4716 8 8.45856C8 8.44552 8 8.43251 8 8.41952C8 8.40652 8 8.39356 8 8.38061C8 8.36766 8 8.35474 8 8.34184C8 8.32894 8 8.31606 8 8.3032C8 8.29035 8 8.27752 8 8.26471C8 8.2519 8 8.23912 8 8.22636C8 8.2136 8 8.20086 8 8.18815C8 8.17544 8 8.16275 8 8.15008C8 8.13742 8 8.12478 8 8.11217C8 8.09955 8 8.08696 8 8.0744C8 8.06183 8 8.04929 8 8.03678C8 8.02426 8 8.01177 8 7.99931C8 7.98684 8 7.9744 8 7.96199C8 7.94958 8 7.93719 8 7.92483C8 7.91247 8 7.90013 8 7.88783C8 7.87552 8 7.86323 8 7.85098C8 7.83872 8 7.82649 8 7.81429C8 7.80209 8 7.78991 8 7.77776C8 7.76561 8 7.75349 8 7.7414C8 7.7293 8 7.71724 8 7.7052C8 7.69316 8 7.68114 8 7.66916C8 7.65718 8 7.64522 8 7.63329C8 7.62137 8 7.60947 8 7.59759C8 7.58572 8 7.57388 8 7.56207C8 7.55025 8 7.53847 8 7.52671C8 7.51495 8 7.50323 8 7.49153C8 7.47983 8 7.46816 8 7.45652C8 7.44488 8 7.43327 8 7.42169C8 7.41011 8 7.39856 8 7.38704C8 7.37552 8 7.36403 8 7.35257C8 7.34111 8 7.32968 8 7.31828C8 7.30688 8 7.29551 8 7.28418C8 7.27284 8 7.26153 8 7.25026C8 7.23898 8 7.22774 8 7.21652C8 7.20531 8 7.19413 8 7.18298C8 7.17183 8 7.16071 8 7.14962C8 7.13854 8 7.12748 8 7.11646C8 7.10544 8 7.09445 8 7.08349C8 7.07253 8 7.06161 8 7.05071C8 7.03982 8 7.02896 8 7.01813C8 7.00731 8 6.99651 8 6.98575C8 6.97499 8 6.96427 8 6.95357C8 6.94288 8 6.93222 8 6.92159C8 6.91097 8 6.90037 8 6.88981C8 6.87926 8 6.86873 8 6.85824C8 6.84775 8 6.8373 8 6.82687C8 6.81645 8 6.80607 8 6.79572C8 6.78536 8 6.77505 8 6.76477C8 6.75448 8 6.74424 8 6.73403C8 6.72382 8 6.71364 8 6.7035C8 6.69336 8 6.68326 8 6.67319C8 6.66312 8 6.65309 8 6.64309C8 6.6331 8 6.62314 8 6.61321C8 6.60329 8 6.5934 8 6.58355C8 6.5737 8 6.56389 8 6.55411C8 6.54434 8 6.5346 8 6.5249C8 6.51519 8 6.50553 8 6.4959C8 6.48628 8 6.47669 8 6.46713C8 6.45758 8 6.44807 8 6.43859C8 6.42912 8 6.41968 8 6.41028C8 6.40088 8 6.39152 8 6.3822C8 6.37288 8 6.36359 8 6.35435C8 6.34511 8 6.3359 8 6.32673C8 6.31757 8 6.30844 8 6.29935C8 6.29026 8 6.28122 8 6.27221C8 6.2632 8 6.25423 8 6.2453C8 6.23637 8 6.22748 8 6.21863C8 6.20979 8 6.20098 8 6.19221C8 6.18344 8 6.17471 8 6.16603C8 6.15734 8 6.1487 8 6.14009C8 6.13149 8 6.12292 8 6.1144C8 6.10588 8 6.0974 8 6.08896C8 6.08052 8 6.07212 8 6.06377C8 6.05541 8 6.0471 8 6.03882C8 6.03055 8 6.02232 8 6.01414C8 6.00595 8 5.9978 8 5.9897C8 5.9816 8 5.97354 8 5.96552C8 5.95751 8 5.94953 8 5.9416C8 5.93367 8 5.92579 8 5.91794C8 5.9101 8 5.9023 8 5.89454C8 5.88679 8 5.87907 8 5.87141C8 5.86374 8 5.85611 8 5.84853C8 5.84095 8 5.83342 8 5.82592C8 5.81843 8 5.81099 8 5.80358C8 5.79618 8 5.78883 8 5.78151C8 5.7742 8 5.76693 8 5.75971C8 5.75249 8 5.74532 8 5.73818C8 5.73105 8 5.72397 8 5.71693C8 5.70989 8 5.7029 8 5.69595C8 5.689 8 5.6821 8 5.67525C8 5.66839 8 5.66159 8 5.65483C8 5.64806 8 5.64135 8 5.63468C8 5.62802 8 5.62139 8 5.61482C8 5.60825 8 5.60172 8 5.59524C8 5.58877 8 5.58233 8 5.57595C8 5.56957 8 5.56323 8 5.55695C8 5.55066 8 5.54442 8 5.53823C8 5.53204 8 5.5259 8 5.5198C8 5.51371 8 5.50766 8 5.50167C8 5.49567 8 5.48972 8 5.48382C8 5.47792 8 5.47208 8 5.46628C8 5.46048 8 5.45472 8 5.44902C8 5.44332 8 5.43767 8 5.43207C8 5.42647 8 5.42092 8 5.41542C8 5.40992 8 5.40446 8 5.39906C8 5.39366 8 5.38831 8 5.38301C8 5.37772 8 5.37247 8 5.36727C8 5.36207 8 5.35693 8 5.35183C8 5.34674 8 5.34169 8 5.3367C8 5.33171 8 5.32677 8 5.32188C8 5.31699 8 5.31215 8 5.30737C8 5.30258 8 5.29785 8 5.29317C8 5.28849 8 5.28386 8 5.27928C8 5.27471 8 5.27019 8 5.26572C8 5.26125 8 5.25683 8 5.25246C8 5.2481 8 5.24379 8 5.23953C8 5.23528 8 5.23107 8 5.22692C8 5.22277 8 5.21867 8 5.21463C8 5.21059 8 5.2066 8 5.20267C8 5.19873 8 5.19485 8 5.19103C8 5.1872 8 5.18343 8 5.17971C8 5.176 8 5.17234 8 5.16873C8 5.16512 8 5.16157 8 5.15808C8 5.15458 8 5.15114 8 5.14775C8 5.14437 8 5.14104 8 5.13777C8 5.13449 8 5.13127 8 5.12811C8 5.12495 8 5.12184 8 5.1188C8 5.11575 8 5.11275 8 5.10982C8 5.10688 8 5.104 8 5.10118C8 5.09836 8 5.09559 8 5.09288C8 5.09017 8 5.08752 8 5.08493C8 5.08234 8 5.0798 8 5.07732C8 5.07484 8 5.07242 8 5.07006C8 5.0677 8 5.06539 8 5.06314C8 5.0609 8 5.05871 8 5.05658C8 5.05445 8 5.05238 8 5.05037C8 5.04835 8 5.0464 8 5.04451C8 5.04261 8 5.04078 8 5.039C8 5.03722 8 5.03551 8 5.03385C8 5.03219 8 5.0306 8 5.02906C8 5.02752 8 5.02604 8 5.02463C8 5.02321 8 5.02185 8 5.02055C8 5.01926 8 5.01802 8 5.01685C8 5.01567 8 5.01455 8 5.0135C8 5.01245 8 5.01145 8 5.01052C8 5.00959 8 5.00872 8 5.00791C8 5.0071 8 5.00635 8 5.00567C8 5.00498 8 5.00436 8 5.00379C8 5.00323 8 5.00273 8 5.00229C8 5.00186 8 5.00148 8 5.00117C8 5.00086 8 5.00061 8 5.00042C8 5.00023 8 5.00011 8 5.00004C7 4.99998 6 4.99999 6 5.00005C6 5.00012 6 5.00024 6 5.00044C6 5.00063 6 5.00088 6 5.0012C6 5.00152 6 5.00191 6 5.00235C6 5.0028 6 5.00331 6 5.00389C6 5.00447 6 5.00511 6 5.00581C6 5.00652 6 5.00729 6 5.00812C6 5.00896 6 5.00986 6 5.01083C6 5.01179 6 5.01282 6 5.01392C6 5.01501 6 5.01618 6 5.0174C6 5.01863 6 5.01993 6 5.02128C6 5.02264 6 5.02407 6 5.02556C6 5.02705 6 5.02861 6 5.03024C6 5.03186 6 5.03355 6 5.03531C6 5.03707 6 5.0389 6 5.04079C6 5.04268 6 5.04464 6 5.04667C6 5.04869 6 5.05079 6 5.05295C6 5.05511 6 5.05734 6 5.05964C6 5.06194 6 5.0643 6 5.06674C6 5.06917 6 5.07167 6 5.07425C6 5.07682 6 5.07946 6 5.08216C6 5.08487 6 5.08765 6 5.09049C6 5.09334 6 5.09625 6 5.09924C6 5.10222 6 5.10528 6 5.1084C6 5.11152 6 5.11471 6 5.11798C6 5.12124 6 5.12457 6 5.12797C6 5.13138 6 5.13485 6 5.13839C6 5.14193 6 5.14555 6 5.14923C6 5.15291 6 5.15667 6 5.16049C6 5.16432 6 5.16822 6 5.17218C6 5.17615 6 5.18019 6 5.1843C6 5.18841 6 5.19259 6 5.19684C6 5.2011 6 5.20542 6 5.20982C6 5.21422 6 5.21868 6 5.22323C6 5.22777 6 5.23238 6 5.23707C6 5.24175 6 5.24651 6 5.25134C6 5.25617 6 5.26108 6 5.26605C6 5.27103 6 5.27608 6 5.2812C6 5.28633 6 5.29153 6 5.2968C6 5.30207 6 5.30741 6 5.31283C6 5.31825 6 5.32374 6 5.3293C6 5.33487 6 5.34051 6 5.34622H8Z" fill="#007AEA"/>
<path d="M7.78109 19.5H6.21891C6.26509 19.4555 6.30941 19.4087 6.35147 19.3595C6.3774 19.3499 6.4187 19.3377 6.47746 19.3258C6.61672 19.2976 6.80288 19.281 7 19.281C7.19712 19.281 7.38328 19.2976 7.52254 19.3258C7.5813 19.3377 7.6226 19.3499 7.64853 19.3595C7.69059 19.4087 7.73491 19.4555 7.78109 19.5ZM6.3258 19.3706C6.3257 19.3706 6.32705 19.3698 6.33012 19.3683C6.32743 19.3699 6.3259 19.3707 6.3258 19.3706ZM7.6742 19.3706C7.6741 19.3707 7.67257 19.3699 7.66988 19.3683C7.67295 19.3698 7.67429 19.3706 7.6742 19.3706Z" stroke="#007AEA"/>
</svg>
