<svg width="20" height="20" viewBox="0 0 20 20" fill="none" xmlns="http://www.w3.org/2000/svg">
<path d="M4 1V1.43051e-06H3V1H4ZM5.09202 18.782L4.63802 19.673H4.63802L5.09202 18.782ZM4.21798 17.908L3.32698 18.362H3.32698L4.21798 17.908ZM14.908 1.21799L15.362 0.326982L14.908 1.21799ZM15.782 2.09202L14.891 2.54601V2.54601L15.782 2.09202ZM5 17C5 16.4477 4.55228 16 4 16C3.44771 16 3 16.4477 3 17H5ZM4 5C4.55229 5 5 4.55229 5 4C5 3.44772 4.55229 3 4 3V5ZM1.5 4L1.5 3L1.5 4ZM1 3.5H0H1ZM1 3H2H1ZM6 2C6.55228 2 7 1.55228 7 1C7 0.447715 6.55228 0 6 0V2ZM3 1L3 2H3V1ZM15 4.2V16H17V4.2H15ZM5 15.8V1H3V15.8H5ZM7 18C5.7909 18 5.71262 17.9759 5.54601 17.891L4.63802 19.673C5.32706 20.0241 5.96888 20 7 20V18ZM3 15.8C3 16.3436 2.99922 16.8114 3.03057 17.195C3.06287 17.5904 3.13418 17.9836 3.32698 18.362L5.10899 17.454C5.0838 17.4046 5.04612 17.3038 5.02392 17.0322C5.00077 16.7488 5 16.3766 5 15.8H3ZM5.54601 17.891C5.35784 17.7951 5.20486 17.6422 5.10899 17.454L3.32698 18.362C3.6146 18.9265 4.07354 19.3854 4.63802 19.673L5.54601 17.891ZM12.8 2C13.3765 2 13.7488 2.00078 14.0322 2.02393C14.3038 2.04612 14.4045 2.0838 14.454 2.10899L15.362 0.326982C14.9836 0.134188 14.5904 0.0628719 14.195 0.0305709C13.8114 -0.000776291 13.3435 1.43051e-06 12.8 1.43051e-06V2ZM17 4.2C17 3.65645 17.0008 3.18864 16.9694 2.80497C16.9371 2.40963 16.8658 2.01641 16.673 1.63803L14.891 2.54601C14.9162 2.59545 14.9539 2.69617 14.9761 2.96784C14.9992 3.25117 15 3.62345 15 4.2H17ZM14.454 2.10899C14.6421 2.20487 14.7951 2.35785 14.891 2.54601L16.673 1.63803C16.3854 1.07354 15.9265 0.614602 15.362 0.326982L14.454 2.10899ZM12.8 1.43051e-06H4V2H12.8V1.43051e-06ZM6 20H7V18H6V20ZM8 19V16.5H6V19H8ZM7.5 17H18.5V15H7.5V17ZM18 16.5V17H20V16.5H18ZM17 18H7V20H17V18ZM18 17C18 17.5523 17.5523 18 17 18V20C18.6569 20 20 18.6569 20 17H18ZM18.5 17C18.2239 17 18 16.7761 18 16.5H20C20 15.6716 19.3284 15 18.5 15V17ZM8 16.5C8 16.7761 7.77614 17 7.5 17V15C6.67157 15 6 15.6716 6 16.5H8ZM3 17C3 18.6569 4.34314 20 6 20V18C5.44771 18 5 17.5523 5 17H3ZM4 3L1.5 3L1.5 5H4V3ZM2 3.5V3L5.96046e-08 3L0 3.5H2ZM6 0L3 2.38419e-07L3 2L6 2V0ZM2 3C2 2.44772 2.44772 2 3 2L3 2.38419e-07C1.34315 5.96046e-08 1.78814e-07 1.34315 5.96046e-08 3L2 3ZM1.5 3C1.77614 3 2 3.22386 2 3.5H0C-1.19209e-07 4.32843 0.67157 5 1.5 5L1.5 3Z" fill="#EEEEF2"/>
</svg>
