<svg width="24" height="24" viewBox="0 0 24 24" fill="none" xmlns="http://www.w3.org/2000/svg">
<path d="M7.09202 20.782L7.54601 19.891L7.54601 19.891L7.09202 20.782ZM6.21799 19.908L7.10899 19.454L7.10899 19.454L6.21799 19.908ZM17.782 19.908L16.891 19.454L16.891 19.454L17.782 19.908ZM16.908 20.782L16.454 19.891L16.454 19.891L16.908 20.782ZM5 6C4.44772 6 4 6.44771 4 7C4 7.55228 4.44772 8 5 8V6ZM19 8C19.5523 8 20 7.55228 20 7C20 6.44771 19.5523 6 19 6V8ZM17 7V17.8H19V7H17ZM14.8 20H9.2V22H14.8V20ZM5 7V17.8H7V7H5ZM9.2 20C8.62345 20 8.25117 19.9992 7.96784 19.9761C7.69617 19.9539 7.59545 19.9162 7.54601 19.891L6.63803 21.673C7.01641 21.8658 7.40963 21.9371 7.80497 21.9694C8.18864 22.0008 8.65645 22 9.2 22V20ZM5 17.8C5 18.3436 4.99922 18.8114 5.03057 19.195C5.06287 19.5904 5.13419 19.9836 5.32698 20.362L7.10899 19.454C7.0838 19.4045 7.04612 19.3038 7.02393 19.0322C7.00078 18.7488 7 18.3766 7 17.8H5ZM7.54601 19.891C7.35785 19.7951 7.20487 19.6422 7.10899 19.454L5.32698 20.362C5.6146 20.9265 6.07354 21.3854 6.63803 21.673L7.54601 19.891ZM17 17.8C17 18.3766 16.9992 18.7488 16.9761 19.0322C16.9539 19.3038 16.9162 19.4045 16.891 19.454L18.673 20.362C18.8658 19.9836 18.9371 19.5904 18.9694 19.195C19.0008 18.8114 19 18.3436 19 17.8H17ZM14.8 22C15.3436 22 15.8114 22.0008 16.195 21.9694C16.5904 21.9371 16.9836 21.8658 17.362 21.673L16.454 19.891C16.4045 19.9162 16.3038 19.9539 16.0322 19.9761C15.7488 19.9992 15.3766 20 14.8 20V22ZM16.891 19.454C16.7951 19.6422 16.6422 19.7951 16.454 19.891L17.362 21.673C17.9265 21.3854 18.3854 20.9265 18.673 20.362L16.891 19.454ZM5 8H6V6H5V8ZM6 8H18V6H6V8ZM18 8H19V6H18V8ZM9.5 6.2C9.5 5.06743 10.5331 4 12 4V2C9.60095 2 7.5 3.79794 7.5 6.2H9.5ZM12 4C13.4669 4 14.5 5.06743 14.5 6.2H16.5C16.5 3.79794 14.399 2 12 2V4ZM7.5 6.2V7H9.5V6.2H7.5ZM14.5 6.2V7H16.5V6.2H14.5Z" fill="#EEEEF2"/>
</svg>
