<svg width="36" height="36" viewBox="0 0 36 36" fill="none" xmlns="http://www.w3.org/2000/svg">
<g clip-path="url(#clip0_118_2492)">
<path d="M18 36C27.514 36 35.2266 28.2874 35.2266 18.7734C35.2266 9.25947 27.514 1.54688 18 1.54688C8.48603 1.54688 0.773438 9.25947 0.773438 18.7734C0.773438 28.2874 8.48603 36 18 36Z" fill="#1A2B63"/>
<path d="M15.2434 26.6431C16.1329 26.6431 16.9523 27.0905 17.4354 27.8399C17.4473 27.8584 17.4673 27.8702 17.4892 27.8719C17.491 27.872 17.4928 27.8721 17.4946 27.8721C17.5147 27.8721 17.5339 27.8635 17.5472 27.8483C18.2714 27.0291 19.3126 26.5593 20.4038 26.5593C20.7756 26.5593 21.1348 26.6137 21.4747 26.7135L20.2199 23.497H15.78L14.5115 26.7485C14.7439 26.6803 14.9893 26.6431 15.2434 26.6431Z" fill="#D9EAFC"/>
<path d="M16.3588 23.4969H15.78L14.5115 26.7485C14.7089 26.6906 14.9162 26.6567 15.1298 26.6472L16.3588 23.4969Z" fill="#AEC1ED"/>
<path d="M13.8928 29.9666C13.8956 29.9852 13.9057 30.0018 13.9208 30.013C13.9329 30.0219 13.9475 30.0266 13.9623 30.0266C13.966 30.0266 13.9697 30.0263 13.9734 30.0258C14.2244 29.9858 14.4765 29.9656 14.7226 29.9656C15.9248 29.9656 17.0717 30.4173 17.9521 31.2376C17.9656 31.2502 17.9828 31.2564 18 31.2564C18.0173 31.2564 18.0345 31.2502 18.048 31.2376C18.9283 30.4173 20.0752 29.9656 21.2775 29.9656C21.5235 29.9656 21.7757 29.9858 22.0267 30.0258C22.0304 30.0263 22.0341 30.0266 22.0377 30.0266C22.0526 30.0266 22.0672 30.0219 22.0793 30.013C22.0944 30.0018 22.1045 29.9852 22.1073 29.9666C22.2372 29.0921 22.5663 28.2638 23.0601 27.5409C22.3656 26.889 21.4318 26.4889 20.4039 26.4889C19.2453 26.4889 18.206 26.997 17.4946 27.8017C17.0182 27.0626 16.1884 26.5728 15.2436 26.5728C14.3373 26.5728 13.5369 27.0235 13.0525 27.7127C13.4835 28.3939 13.7731 29.1605 13.8928 29.9666Z" fill="#AEC1ED"/>
<path d="M13.9623 29.9563C13.5391 27.1079 11.084 24.9225 8.11798 24.9225C6.05888 24.9225 4.2465 25.9761 3.18872 27.5731C4.8083 30.2933 7.1561 32.5284 9.96291 34.0117C10.2631 31.9328 11.8928 30.2851 13.9623 29.9563Z" fill="#445EA0"/>
<path d="M8.70804 25.6491C10.215 25.6491 11.5963 26.1836 12.6754 27.072C11.5917 25.7596 9.95299 24.9225 8.11798 24.9225C6.05888 24.9225 4.2465 25.9761 3.18872 27.5731C3.32843 27.8077 3.47398 28.0386 3.62438 28.2658C4.75774 26.682 6.61181 25.6491 8.70804 25.6491Z" fill="#293D7C"/>
<path d="M27.8819 24.9225C24.9158 24.9225 22.4607 27.108 22.0376 29.9563C24.107 30.2851 25.7368 31.9328 26.037 34.0117C28.8437 32.5284 31.1916 30.2932 32.8112 27.5731C31.7534 25.9761 29.941 24.9225 27.8819 24.9225Z" fill="#445EA0"/>
<path d="M28.2396 24.9335C28.1213 24.9265 28.0022 24.9225 27.8821 24.9225C24.9161 24.9225 22.461 27.108 22.0378 29.9563C22.2583 29.9913 22.4735 30.0422 22.6829 30.1061C23.2708 27.4146 25.4817 25.3305 28.2396 24.9335Z" fill="#293D7C"/>
<path d="M21.2775 29.8953C20.0108 29.8953 18.8591 30.3858 18.0001 31.1861C17.1411 30.3857 15.9894 29.8953 14.7227 29.8953C12.3015 29.8953 10.2986 31.6844 9.96289 34.0126C12.3625 35.2808 15.0971 36 18.0001 36C20.9031 36 23.6377 35.2808 26.0373 34.0126C25.7016 31.6844 23.6987 29.8953 21.2775 29.8953Z" fill="#293D7C"/>
<path d="M15.7278 30.4932C16.3912 30.4932 17.0243 30.6222 17.6038 30.8562C16.8006 30.2536 15.8038 29.8953 14.7225 29.8953C12.3012 29.8953 10.2984 31.6844 9.96265 34.0126C10.2455 34.1621 10.5332 34.3037 10.825 34.4376C11.3177 32.1823 13.3247 30.4932 15.7278 30.4932Z" fill="#1A2B63"/>
<path d="M19.5838 23.4969H18.5208L18.6564 24.57C18.6929 24.859 18.9571 25.0634 19.2457 25.027C19.5346 24.9905 19.7393 24.7266 19.7027 24.4377L19.5838 23.4969Z" fill="#AEC1ED"/>
<path d="M16.4159 23.497L16.137 25.7034C16.1005 25.9923 16.3051 26.2562 16.5941 26.2927C16.6166 26.2955 16.6388 26.2969 16.6609 26.2969C16.9227 26.2968 17.1498 26.102 17.1835 25.8356L17.4791 23.4969L16.4159 23.497Z" fill="#AEC1ED"/>
<path d="M12.5936 13.7614C12.5936 13.188 12.6151 12.6161 12.6553 12.0484C10.9636 13.0011 9.7981 15.1234 9.7981 17.5804C9.7981 18.8781 10.1208 20.1157 10.7311 21.1594C10.7884 21.2574 10.8922 21.3134 10.9999 21.3134C11.0393 21.3134 11.0791 21.306 11.1174 21.2903C11.9196 20.9623 12.7769 20.7939 13.6658 20.7868C12.9639 18.6263 12.5936 16.2134 12.5936 13.7614Z" fill="#FE3745"/>
<path d="M10.5953 17.5804C10.5953 15.551 11.3909 13.7507 12.6209 12.6485C12.6303 12.4481 12.6412 12.2479 12.6553 12.0484C10.9636 13.0011 9.7981 15.1234 9.7981 17.5804C9.7981 18.8781 10.1208 20.1157 10.7311 21.1594C10.7884 21.2574 10.8922 21.3134 10.9999 21.3134C11.0393 21.3134 11.0791 21.306 11.1174 21.2903C11.2496 21.2362 11.3839 21.1881 11.519 21.1428C10.9148 20.1026 10.5953 18.8713 10.5953 17.5804Z" fill="#B7092B"/>
<path d="M23.3446 12.0484C23.3848 12.6162 23.4063 13.188 23.4063 13.7614C23.4063 16.2134 23.036 18.6262 22.334 20.7868C23.223 20.7939 24.0802 20.9623 24.8824 21.2903C24.9207 21.306 24.9606 21.3134 25 21.3134C25.1077 21.3134 25.2114 21.2573 25.2687 21.1594C25.8791 20.1157 26.2017 18.8781 26.2017 17.5804C26.2018 15.1234 25.0363 13.0011 23.3446 12.0484Z" fill="#FE3745"/>
<path d="M15.3076 21.5947V23.2157C15.3076 23.4091 15.4658 23.5673 15.6592 23.5673H20.3408C20.5342 23.5673 20.6924 23.4091 20.6924 23.2157V21.5947H15.3076Z" fill="#FE3745"/>
<path d="M16.5034 23.2157V21.5947H15.3076V23.2157C15.3076 23.4091 15.4658 23.5673 15.6592 23.5673H16.855C16.6616 23.5673 16.5034 23.4091 16.5034 23.2157Z" fill="#B7092B"/>
<path d="M22.2788 6.35046H13.7211C12.9368 8.61122 12.5232 11.1558 12.5232 13.7613C12.5232 16.4699 12.9724 19.1323 13.8222 21.4606C13.8671 21.5833 13.9838 21.665 14.1145 21.665H21.8854C22.0161 21.665 22.1329 21.5833 22.1777 21.4606C23.0275 19.1323 23.4767 16.4699 23.4767 13.7613C23.4768 11.1558 23.0631 8.61129 22.2788 6.35046Z" fill="#EEF6FF"/>
<path d="M14.8187 21.4606C13.9688 19.1323 13.5197 16.4699 13.5197 13.7613C13.5197 11.1558 13.9333 8.61122 14.7176 6.35046H13.7211C12.9368 8.61122 12.5232 11.1558 12.5232 13.7613C12.5232 16.4699 12.9724 19.1323 13.8222 21.4606C13.8671 21.5833 13.9838 21.665 14.1145 21.665H15.111C14.9803 21.665 14.8635 21.5833 14.8187 21.4606Z" fill="#D9EAFC"/>
<path d="M15.9736 6.35046V7.51723C15.9736 7.71059 16.1318 7.86879 16.3252 7.86879H19.675C19.8684 7.86879 20.0266 7.71059 20.0266 7.51723V6.35046H15.9736Z" fill="#EA2A3D"/>
<path d="M16.7708 7.51723V6.35046H15.9736V7.51723C15.9736 7.71059 16.1318 7.86879 16.3252 7.86879H17.1224C16.929 7.86879 16.7708 7.71059 16.7708 7.51723Z" fill="#B7092B"/>
<path d="M18 0C17.9306 0 17.8613 0.0231328 17.8042 0.0693281C16.2336 1.34121 14.9106 3.27059 13.9784 5.64891C13.8793 5.90196 13.7861 6.16001 13.6968 6.4208H22.3032C22.2139 6.16001 22.1207 5.90196 22.0216 5.64891C21.0894 3.27059 19.7665 1.34121 18.1958 0.0693281C18.1388 0.0231328 18.0694 0 18 0Z" fill="#FE3745"/>
<path d="M18.4983 0.325406C18.3985 0.237445 18.2977 0.151875 18.1959 0.0693281C18.1388 0.0231328 18.0694 0 18 0C17.9306 0 17.8613 0.0231328 17.8042 0.0693281C16.2336 1.34121 14.9106 3.27059 13.9784 5.64891C13.8793 5.90196 13.7861 6.16001 13.6968 6.4208H14.6932C14.7826 6.16001 14.8758 5.90196 14.9749 5.64891C15.8467 3.42485 17.0601 1.59377 18.4983 0.325406Z" fill="#B7092B"/>
<path d="M17.9999 16.309C19.9812 16.309 21.5873 14.7029 21.5873 12.7216C21.5873 10.7404 19.9812 9.13428 17.9999 9.13428C16.0187 9.13428 14.4126 10.7404 14.4126 12.7216C14.4126 14.7029 16.0187 16.309 17.9999 16.309Z" fill="#445EA0"/>
<path d="M17.9999 15.023C19.2709 15.023 20.3013 13.9927 20.3013 12.7216C20.3013 11.4506 19.2709 10.4202 17.9999 10.4202C16.7289 10.4202 15.6985 11.4506 15.6985 12.7216C15.6985 13.9927 16.7289 15.023 17.9999 15.023Z" fill="#69CDFF"/>
<path d="M16.5422 12.7218C16.5422 13.8487 17.3522 14.7858 18.4218 14.984C18.2849 15.0094 18.1441 15.0233 17.9999 15.0233C16.7288 15.0233 15.6985 13.9928 15.6985 12.7218C15.6985 11.4508 16.7288 10.4204 17.9999 10.4204C18.144 10.4204 18.2849 10.4343 18.4218 10.4596C17.3522 10.6579 16.5422 11.5949 16.5422 12.7218Z" fill="#52BBEF"/>
<path d="M7.74385 12.5674C7.66321 12.5674 7.5905 12.5189 7.55963 12.4443C7.16708 11.4966 6.87767 11.2072 5.92993 10.8147C5.8554 10.7838 5.80688 10.7111 5.80688 10.6305C5.80688 10.5498 5.85547 10.4771 5.92993 10.4462C6.87774 10.0536 7.16708 9.76415 7.55963 8.81648C7.5905 8.74195 7.66321 8.69336 7.74385 8.69336C7.8245 8.69336 7.89721 8.74195 7.92807 8.81648C8.3207 9.76415 8.6101 10.0536 9.55785 10.4462C9.63238 10.4771 9.68096 10.5498 9.68096 10.6305C9.68096 10.7111 9.63238 10.7839 9.55785 10.8147C8.6101 11.2072 8.3207 11.4966 7.92807 12.4443C7.89721 12.5189 7.8245 12.5674 7.74385 12.5674Z" fill="#FFD00D"/>
<path d="M7.95824 12.0458C7.56568 11.098 7.27628 10.8087 6.32853 10.4161C6.28171 10.3968 6.24521 10.3608 6.22447 10.3168C6.13349 10.3594 6.03646 10.4021 5.92993 10.4463C5.8554 10.4772 5.80688 10.5499 5.80688 10.6305C5.80688 10.7112 5.85547 10.7839 5.92993 10.8147C6.87767 11.2073 7.16708 11.4966 7.55963 12.4444C7.5905 12.5189 7.66321 12.5675 7.74385 12.5675C7.8245 12.5675 7.89721 12.5189 7.92807 12.4444C7.97216 12.3378 8.01498 12.2408 8.05752 12.1499C8.01357 12.1291 7.97764 12.0926 7.95824 12.0458Z" fill="#FFAF10"/>
<path d="M28.9314 14.1612C28.8605 14.1612 28.7966 14.1185 28.7694 14.053C28.4244 13.2199 28.17 12.9656 27.337 12.6206C27.2715 12.5935 27.2288 12.5295 27.2288 12.4587C27.2288 12.3877 27.2714 12.3239 27.337 12.2967C28.1701 11.9516 28.4244 11.6972 28.7694 10.8642C28.7966 10.7987 28.8605 10.756 28.9314 10.756C29.0023 10.756 29.0662 10.7987 29.0933 10.8642C29.4384 11.6973 29.6928 11.9516 30.5259 12.2967C30.5914 12.3239 30.6341 12.3877 30.6341 12.4587C30.6341 12.5295 30.5914 12.5935 30.5259 12.6206C29.6928 12.9656 29.4384 13.2199 29.0933 14.053C29.0662 14.1185 29.0023 14.1612 28.9314 14.1612Z" fill="white"/>
<path d="M29.1199 13.7027C28.7748 12.8696 28.5205 12.6153 27.6873 12.2702C27.6462 12.2532 27.6141 12.2216 27.5959 12.1829C27.5159 12.2203 27.4306 12.2579 27.337 12.2967C27.2715 12.3238 27.2288 12.3877 27.2288 12.4586C27.2288 12.5295 27.2714 12.5934 27.337 12.6206C28.1701 12.9656 28.4244 13.2199 28.7694 14.053C28.7966 14.1185 28.8605 14.1612 28.9314 14.1612C29.0023 14.1612 29.0662 14.1185 29.0933 14.053C29.132 13.9594 29.1697 13.874 29.2071 13.7941C29.1685 13.7759 29.137 13.7438 29.1199 13.7027Z" fill="#D9EAFC"/>
<path d="M27.1033 6.75498C27.0206 6.75498 26.9462 6.70519 26.9145 6.6289C26.5125 5.65817 26.2161 5.3618 25.2454 4.95983C25.1691 4.92826 25.1194 4.85373 25.1194 4.77118C25.1194 4.68849 25.1692 4.6141 25.2454 4.58246C26.2162 4.18027 26.5126 3.8839 26.9145 2.91331C26.9462 2.83695 27.0206 2.78717 27.1033 2.78717C27.1859 2.78717 27.2603 2.83695 27.292 2.91331C27.6941 3.88398 27.9905 4.18034 28.9612 4.58246C29.0375 4.6141 29.0872 4.68849 29.0872 4.77118C29.0872 4.85373 29.0374 4.92826 28.9611 4.95983C27.9904 5.3618 27.6941 5.65824 27.2919 6.6289C27.2603 6.70519 27.1859 6.75498 27.1033 6.75498Z" fill="#FF9518"/>
<path d="M27.3229 6.22071C26.9208 5.25005 26.6244 4.95368 25.6537 4.55163C25.6057 4.5318 25.5684 4.49496 25.5471 4.44989C25.454 4.49355 25.3545 4.53736 25.2454 4.5825C25.1691 4.61414 25.1194 4.68853 25.1194 4.77122C25.1194 4.85377 25.1692 4.9283 25.2454 4.95987C26.2161 5.36191 26.5126 5.65828 26.9145 6.62895C26.9462 6.70523 27.0206 6.75502 27.1033 6.75502C27.1859 6.75502 27.2603 6.70523 27.292 6.62895C27.3372 6.51982 27.381 6.4204 27.4246 6.3273C27.3795 6.30607 27.3427 6.26866 27.3229 6.22071Z" fill="#EF8318"/>
</g>
<defs>
<clipPath id="clip0_118_2492">
<rect width="36" height="36" fill="white"/>
</clipPath>
</defs>
</svg>
