<svg width="40" height="40" viewBox="0 0 40 40" fill="none" xmlns="http://www.w3.org/2000/svg">
<rect width="40" height="40" rx="20" fill="white"/>
<path d="M19 24C19 24.5523 19.4477 25 20 25C20.5523 25 21 24.5523 21 24H19ZM21 13C21 12.4477 20.5523 12 20 12C19.4477 12 19 12.4477 19 13L21 13ZM23.2929 15.7071C23.6834 16.0976 24.3166 16.0976 24.7071 15.7071C25.0976 15.3166 25.0976 14.6834 24.7071 14.2929L23.2929 15.7071ZM20.7071 11.7071L20 12.4142L20.7071 11.7071ZM19.2929 11.7071L20 12.4142L20 12.4142L19.2929 11.7071ZM15.2929 14.2929C14.9024 14.6834 14.9024 15.3166 15.2929 15.7071C15.6834 16.0976 16.3166 16.0976 16.7071 15.7071L15.2929 14.2929ZM12 24C12 23.4477 11.5523 23 11 23C10.4477 23 10 23.4477 10 24H12ZM30 24C30 23.4477 29.5523 23 29 23C28.4477 23 28 23.4477 28 24H30ZM27.362 28.673L26.908 27.782H26.908L27.362 28.673ZM28.673 27.3619L29.564 27.8159V27.8159L28.673 27.3619ZM11.327 27.3619L10.436 27.8159L11.327 27.3619ZM12.638 28.673L12.184 29.564H12.184L12.638 28.673ZM21 24L21 13L19 13L19 24H21ZM24.7071 14.2929L21.4142 11L20 12.4142L23.2929 15.7071L24.7071 14.2929ZM18.5858 11L15.2929 14.2929L16.7071 15.7071L20 12.4142L18.5858 11ZM21.4142 11C20.6332 10.2189 19.3668 10.2189 18.5858 11L20 12.4142L20 12.4142L21.4142 11ZM10 24V24.2H12V24H10ZM15.8 30H24.2V28H15.8V30ZM30 24.2V24H28V24.2H30ZM24.2 30C25.0236 30 25.7014 30.0007 26.2518 29.9558C26.8139 29.9099 27.3306 29.8113 27.816 29.564L26.908 27.782C26.7516 27.8617 26.5274 27.9266 26.089 27.9624C25.6389 27.9992 25.0566 28 24.2 28V30ZM28 24.2C28 25.0566 27.9992 25.6388 27.9624 26.0889C27.9266 26.5273 27.8617 26.7516 27.782 26.908L29.564 27.8159C29.8113 27.3306 29.9099 26.8139 29.9558 26.2518C30.0008 25.7014 30 25.0235 30 24.2H28ZM27.816 29.564C28.5686 29.1805 29.1805 28.5686 29.564 27.8159L27.782 26.908C27.5903 27.2843 27.2843 27.5902 26.908 27.782L27.816 29.564ZM10 24.2C10 25.0235 9.99922 25.7014 10.0442 26.2518C10.0901 26.8139 10.1887 27.3306 10.436 27.8159L12.218 26.908C12.1383 26.7516 12.0734 26.5273 12.0376 26.0889C12.0008 25.6388 12 25.0566 12 24.2H10ZM15.8 28C14.9434 28 14.3611 27.9992 13.911 27.9624C13.4726 27.9266 13.2484 27.8617 13.092 27.782L12.184 29.564C12.6694 29.8113 13.1861 29.9099 13.7482 29.9558C14.2986 30.0007 14.9764 30 15.8 30V28ZM10.436 27.8159C10.8195 28.5686 11.4314 29.1805 12.184 29.564L13.092 27.782C12.7157 27.5902 12.4097 27.2843 12.218 26.908L10.436 27.8159Z" fill="#007AEA"/>
</svg>
