<svg width="24" height="24" viewBox="0 0 24 24" fill="none" xmlns="http://www.w3.org/2000/svg">
<path d="M18 9.7639C18.6137 10.3132 19 11.1115 19 12C19 12.8885 18.6137 13.6868 18 14.2361M20 7.52757C21.2275 8.62622 22 10.2228 22 11.9998C22 13.7768 21.2275 15.3734 20 16.472M4 16H5C5.55228 16 6 15.5523 6 15V8.99999C6 8.4477 5.55228 7.99999 5 7.99999H4C2.89543 7.99999 2 8.89542 2 9.99999V14C2 15.1046 2.89543 16 4 16ZM6.55279 7.72359L12.5528 4.72359C13.2177 4.39114 14 4.87464 14 5.61802V18.382C14 19.1253 13.2177 19.6088 12.5528 19.2764L6.55279 16.2764C6.214 16.107 6 15.7607 6 15.382V8.61802C6 8.23925 6.214 7.89299 6.55279 7.72359Z" stroke="#F2EFEE" stroke-width="2" stroke-linecap="round"/>
</svg>
